<svg width="375" height="90" viewBox="0 0 375 90" fill="none" xmlns="http://www.w3.org/2000/svg">
<rect x="4.5271" y="60.1447" width="30.9781" height="10.5506" fill="#161616"/>
<rect x="46.1223" y="23.2178" width="35.4035" height="10.5506" fill="#161616"/>
<rect width="37.0506" height="10.5859" transform="matrix(0.709456 -0.70475 0.709456 0.70475 27.5354 26.4696)" fill="#161616"/>
<rect width="28.4546" height="10.5859" transform="matrix(-0.709456 -0.70475 -0.709456 0.70475 27.6975 52.846)" fill="#161616"/>
<rect width="29.9934" height="10.5859" transform="matrix(-0.709456 0.70475 -0.709456 -0.70475 54.252 67.6053)" fill="#161616"/>
<rect width="33.522" height="10.5859" transform="matrix(0.709456 0.70475 0.709456 -0.70475 54.0898 41.229)" fill="#161616"/>
<rect x="27.5354" y="15.3051" width="25.4973" height="10.6211" transform="rotate(90 27.5354 15.3051)" fill="#161616"/>
<rect x="64.7122" y="52.232" width="31.6519" height="10.6211" transform="rotate(90 64.7122 52.232)" fill="#161616"/>
<path fill-rule="evenodd" clip-rule="evenodd" d="M111.728 72.5403C116.746 72.5403 120.962 72.5403 124.489 72.5403C131.709 72.6503 137.136 72.2506 140.994 70.6014C144.907 68.8972 147.662 66.066 149.261 62.1079C150.914 58.1498 151.741 52.4325 151.741 44.956C151.741 38.0292 151.052 32.282 149.674 28.3788C148.296 24.4756 145.954 21.5895 142.647 19.7204C139.395 17.7963 134.766 16.5319 128.758 15.9272C126.003 15.6523 123.33 15.5149 120.739 15.5149C118.149 15.4599 115.073 15.5148 111.728 15.5148V72.5403ZM136.943 62.6851C134.959 63.9495 132.203 64.6917 128.676 64.9116C127.628 65.0215 126.499 65.049 125.286 64.994C124.129 64.9391 122.668 64.8566 120.905 64.7467V23.7634C123.219 23.7634 125.755 23.9009 128.51 24.1758C132.203 24.6155 135.041 25.4951 137.025 26.8145C139.01 28.1339 140.415 30.1679 141.242 32.9166C142.068 35.6104 142.482 39.4036 142.482 44.2963C142.482 49.4639 142.041 53.5045 141.159 56.4181C140.332 59.2767 138.927 61.3658 136.943 62.6851Z" fill="#161616"/>
<path fill-rule="evenodd" clip-rule="evenodd" d="M159.657 71.8383C161.751 72.608 164.699 72.9928 168.502 72.9928C171.864 72.9928 174.427 72.5805 176.191 71.7559C177.954 70.8763 179.58 69.282 181.068 66.9731H181.73V72.583H189.831V43.3892C189.831 39.3761 189.308 36.2976 188.261 34.1536C187.214 31.9546 185.422 30.4153 182.887 29.5357C180.407 28.6012 176.88 28.1339 172.305 28.1339C167.786 28.1339 164.286 28.5462 161.806 29.3708C159.381 30.1404 157.672 31.4873 156.68 33.4114C155.688 35.2805 155.023 37.9805 155.023 41.4926H164.203C164.203 39.1837 164.755 37.6169 165.857 36.7923C167.014 35.9677 169.164 35.5554 172.305 35.5554C174.675 35.5554 176.521 35.8028 177.844 36.2976C179.167 36.7923 180.104 37.5894 180.655 38.6889C181.206 39.7884 181.482 41.3552 181.482 43.3892V44.5437H174.455C169.109 44.5437 164.975 45.011 162.054 45.9455C159.133 46.8251 157.066 48.3919 155.854 50.6458C154.641 52.8448 154.035 55.9508 154.035 59.9639C154.035 63.3723 154.448 66.0111 155.275 67.8802C156.157 69.7493 157.617 71.0687 159.657 71.8383ZM176.935 64.1694C175.392 64.9941 173.159 65.4064 170.238 65.4064C167.372 65.4064 165.416 64.9666 164.369 64.087C163.322 63.2074 162.798 61.5857 162.798 59.2218C162.798 57.2977 163.101 55.8409 163.707 54.8513C164.314 53.8068 165.306 53.0647 166.684 52.6249C168.117 52.1851 170.128 51.9377 172.719 51.8827L181.399 51.8003C181.289 55.3736 180.903 58.1223 180.242 60.0464C179.58 61.9705 178.478 63.3448 176.935 64.1694Z" fill="#161616"/>
<path fill-rule="evenodd" clip-rule="evenodd" d="M264.112 71.0137C266.923 72.3331 270.919 72.9928 276.1 72.9928C281.225 72.9928 285.193 72.3331 288.004 71.0137C290.815 69.6394 292.799 67.3854 293.956 64.2519C295.169 61.0634 295.775 56.528 295.775 50.6458C295.775 44.7086 295.169 40.1457 293.956 36.9572C292.799 33.7687 290.815 31.5148 288.004 30.1954C285.248 28.8211 281.28 28.1339 276.1 28.1339C270.919 28.1339 266.923 28.8211 264.112 30.1954C261.301 31.5148 259.317 33.7687 258.16 36.9572C257.003 40.1457 256.424 44.7086 256.424 50.6458C256.424 56.528 257.003 61.0634 258.16 64.2519C259.317 67.4404 261.301 69.6943 264.112 71.0137ZM282.631 64.087C281.142 64.9666 278.965 65.4064 276.1 65.4064C273.234 65.4064 271.029 64.9666 269.486 64.087C267.943 63.2074 266.84 61.7231 266.179 59.6341C265.518 57.5451 265.187 54.549 265.187 50.6458C265.187 46.6877 265.518 43.6641 266.179 41.5751C266.84 39.4311 267.943 37.9193 269.486 37.0397C271.029 36.1051 273.234 35.6379 276.1 35.6379C278.965 35.6379 281.142 36.1051 282.631 37.0397C284.174 37.9193 285.276 39.4311 285.937 41.5751C286.599 43.6641 286.929 46.6877 286.929 50.6458C286.929 54.549 286.599 57.5451 285.937 59.6341C285.276 61.7231 284.174 63.2074 282.631 64.087Z" fill="#161616"/>
<path d="M298.809 28.5413H307.655V35.308H308.317C309.695 32.5043 311.238 30.6077 312.946 29.6182C314.71 28.6287 317.245 28.1339 320.552 28.1339C324.52 28.1339 327.579 28.6561 329.728 29.7007C331.878 30.6902 333.421 32.3669 334.358 34.7308C335.295 37.0947 335.763 40.4756 335.763 44.8735V72.583H326.918V44.7086C326.918 42.4547 326.67 40.6955 326.174 39.4311C325.678 38.1667 324.823 37.2871 323.611 36.7923C322.398 36.2976 320.662 36.0502 318.403 36.0502C315.592 36.0502 313.415 36.4625 311.872 37.2871C310.383 38.1117 309.309 39.5135 308.647 41.4926C307.986 43.4717 307.655 46.2754 307.655 49.9037V72.583H298.809V28.5413Z" fill="#161616"/>
<path fill-rule="evenodd" clip-rule="evenodd" d="M344.825 71.8383C346.919 72.608 349.868 72.9928 353.671 72.9928C357.033 72.9928 359.596 72.5805 361.359 71.7559C363.123 70.8763 364.749 69.282 366.237 66.9731H366.898V72.583H375V43.3892C375 39.3761 374.476 36.2976 373.429 34.1536C372.382 31.9546 370.591 30.4153 368.056 29.5357C365.575 28.6012 362.048 28.1339 357.474 28.1339C352.954 28.1339 349.455 28.5462 346.974 29.3708C344.549 30.1404 342.841 31.4873 341.849 33.4114C340.857 35.2805 340.377 37.6482 340.377 41.4926H349.372C349.372 39.1837 349.923 37.6169 351.025 36.7923C352.183 35.9677 354.332 35.5554 357.474 35.5554C359.844 35.5554 361.69 35.8028 363.013 36.2976C364.335 36.7923 365.272 37.5894 365.823 38.6889C366.375 39.7884 366.65 41.3552 366.65 43.3892V44.5437H359.623C354.277 44.5437 350.144 45.011 347.222 45.9455C344.301 46.8251 342.235 48.3919 341.022 50.6458C339.81 52.8448 339.203 55.9508 339.203 59.9639C339.203 63.3723 339.617 66.0111 340.443 67.8802C341.325 69.7493 342.786 71.0687 344.825 71.8383ZM362.103 64.1694C360.56 64.9941 358.328 65.4064 355.407 65.4064C352.541 65.4064 350.584 64.9666 349.537 64.087C348.49 63.2074 347.967 61.5857 347.967 59.2218C347.967 57.2977 348.27 55.8409 348.876 54.8513C349.482 53.8068 350.474 53.0647 351.852 52.6249C353.285 52.1851 355.297 51.9377 357.887 51.8827L366.568 51.8003C366.457 55.3736 366.071 58.1223 365.41 60.0464C364.749 61.9705 363.646 63.3448 362.103 64.1694Z" fill="#161616"/>
<path d="M228.327 28.4504H219.812L211.449 64.6717H208.406L200.377 28.4504H192.014L198.797 62.7333C199.91 68.3596 204.845 72.4142 210.58 72.4142L208.773 78.052C207.904 80.2901 207.563 82.6162 203.18 82.6162H197.701V89.7608L207.854 89.8648C210.915 89.8128 214.762 87.6008 217.623 78.052L228.327 28.4504Z" fill="#161616"/>
<path d="M240.83 71.2005C242.778 72.1956 245.644 72.6931 249.428 72.6931H254.511V65.1468H252.183C249.957 65.1468 248.288 64.898 247.174 64.4005C246.061 63.9029 245.31 63.1842 244.92 62.2444C244.587 61.2492 244.42 59.8395 244.42 58.0151V35.7907H254.511V28.4931H244.42V19.2053L236.322 19.2053V28.4931H232.325L230.819 35.7907H235.988V58.3468C235.988 61.885 236.322 64.6769 236.99 66.7224C237.658 68.7127 238.938 70.2053 240.83 71.2005Z" fill="#161616"/>
</svg>
