<svg width="114" height="46" viewBox="0 0 114 46" fill="none" xmlns="http://www.w3.org/2000/svg">
<path d="M33.9043 1.59323C36.241 1.31019 38.6067 2.02081 40.3945 3.5444C42.1549 5.04454 43.2065 7.21711 43.2803 9.50631C43.2834 9.59745 43.2852 9.68879 43.2852 9.77682C43.2852 10.1347 43.2857 10.3939 40.4268 33.5825C40.2425 35.0733 40.1115 36.1381 40.0645 36.5249C39.8104 38.6067 38.9197 40.5361 37.5576 41.9575V41.9555C36.0058 43.5758 33.9205 44.4682 31.6865 44.4682C31.5917 44.4682 31.496 44.4665 31.4004 44.4633C28.383 44.362 25.6623 42.5992 24.2979 39.8647L24.2871 39.8452C22.842 36.7956 21.1811 30.6541 17.5068 27.0005C13.8323 23.3467 7.64764 21.6855 4.58008 20.2485C1.85622 18.8973 0.103061 16.2084 0.00488281 13.2309C0.00174625 13.1366 0 13.0444 0 12.9555C4.05683e-05 12.2555 0.0886558 11.5585 0.262695 10.8842C1.09155 7.66945 3.90385 5.23637 7.26074 4.82858L33.9043 1.59323ZM31.6865 30.8676C28.7446 30.8676 26.3557 33.2532 26.3555 36.1723C26.3556 39.1001 28.7523 41.477 31.6865 41.477C34.6205 41.4768 37.0253 39.0914 37.0254 36.1723C37.0252 33.2534 34.6291 30.8679 31.6865 30.8676ZM8.40332 7.70162C5.46936 7.70181 3.06467 10.0873 3.06445 13.0063C3.06457 15.934 5.46067 18.3108 8.40332 18.311C11.3461 18.311 13.7343 15.9255 13.7344 13.0063C13.7342 10.0872 11.3374 7.70162 8.40332 7.70162ZM34.8838 4.52389C31.9418 4.52389 29.553 6.90947 29.5527 9.82858C29.5529 12.7563 31.9496 15.1333 34.8838 15.1333C37.8178 15.133 40.2225 12.7476 40.2227 9.82858C40.2224 6.90962 37.8263 4.52414 34.8838 4.52389Z" fill="black"/>
<path d="M57.1092 36V9.4H60.9092V20.762L71.5492 9.4H76.2992L64.5572 21.788L76.4892 36H71.7392L61.2892 23.65L60.9092 24.03V36H57.1092ZM77.1135 36V17.152H80.9135V36H77.1135ZM79.0135 13.77C78.2788 13.77 77.6708 13.542 77.1895 13.086C76.7082 12.6047 76.4675 12.022 76.4675 11.338C76.4675 10.654 76.7082 10.084 77.1895 9.628C77.6708 9.14667 78.2788 8.906 79.0135 8.906C79.7228 8.906 80.3182 9.14667 80.7995 9.628C81.2808 10.084 81.5215 10.654 81.5215 11.338C81.5215 12.022 81.2808 12.6047 80.7995 13.086C80.3182 13.542 79.7228 13.77 79.0135 13.77ZM90.6718 36C89.4811 36 88.4424 35.81 87.5558 35.43C86.6691 35.05 85.9851 34.4167 85.5038 33.53C85.0224 32.6433 84.7818 31.44 84.7818 29.92V20.04H81.5138V17.152H84.7818L85.2378 12.44H88.5818V17.152H93.9778V20.04H88.5818V29.958C88.5818 31.1233 88.7971 31.9213 89.2278 32.352C89.6838 32.7573 90.4818 32.96 91.6218 32.96H93.7118V36H90.6718ZM102.416 36.456C100.567 36.456 98.9325 36.0507 97.5138 35.24C96.0952 34.404 94.9805 33.2513 94.1698 31.782C93.3592 30.3127 92.9538 28.59 92.9538 26.614C92.9538 24.638 93.3465 22.9153 94.1318 21.446C94.9425 19.9513 96.0572 18.786 97.4758 17.95C98.9198 17.114 100.579 16.696 102.454 16.696C104.329 16.696 105.937 17.114 107.28 17.95C108.623 18.7607 109.661 19.8373 110.396 21.18C111.156 22.5227 111.536 24.0173 111.536 25.664C111.536 25.9173 111.523 26.196 111.498 26.5C111.498 26.804 111.485 27.1207 111.46 27.45H95.7278V24.79H107.736C107.66 23.194 107.128 21.9527 106.14 21.066C105.152 20.154 103.911 19.698 102.416 19.698C101.377 19.698 100.415 19.926 99.5278 20.382C98.6665 20.8127 97.9698 21.484 97.4378 22.396C96.9312 23.308 96.6778 24.4607 96.6778 25.854V26.918C96.6778 28.3113 96.9438 29.4893 97.4758 30.452C98.0078 31.3893 98.7045 32.0987 99.5658 32.58C100.453 33.0613 101.39 33.302 102.378 33.302C103.594 33.302 104.595 33.036 105.38 32.504C106.191 31.9467 106.786 31.1993 107.166 30.262H110.966C110.637 31.4527 110.079 32.5167 109.294 33.454C108.509 34.366 107.533 35.1007 106.368 35.658C105.228 36.19 103.911 36.456 102.416 36.456Z" fill="black"/>
</svg>
