<?xml version="1.0" encoding="utf-8"?>
<!-- Generator: Adobe Illustrator 23.0.4, SVG Export Plug-In . SVG Version: 6.00 Build 0)  -->
<svg version="1.1" id="Layer_1" xmlns="http://www.w3.org/2000/svg" xmlns:xlink="http://www.w3.org/1999/xlink" x="0px" y="0px"
	 viewBox="0 0 1278.843 591.313" enable-background="new 0 0 1278.843 591.313" xml:space="preserve">
<g>
	<path fill="#666666" d="M667.833,113.51c3.066,0,5.275-0.766,6.627-2.301c1.351-1.532,2.027-3.677,2.027-6.432
		c0-2.469-0.727-4.476-2.184-6.022c-1.455-1.545-3.56-2.32-6.315-2.32c-2.547,0-4.664,0.76-6.354,2.28
		c-1.689,1.521-2.534,3.424-2.534,5.711h-9.083l-0.078-0.234c-0.156-4.34,1.501-7.985,4.97-10.935
		c3.469-2.948,7.829-4.423,13.078-4.423c5.535,0,9.908,1.357,13.117,4.073s4.814,6.672,4.814,11.869
		c0,2.599-0.709,4.984-2.125,7.153c-1.417,2.17-3.385,3.866-5.905,5.087c2.884,1.144,5.091,2.865,6.626,5.165
		c1.532,2.3,2.299,5.074,2.299,8.322c0,5.223-1.753,9.317-5.261,12.28c-3.509,2.961-8.031,4.443-13.566,4.443
		c-4.989,0-9.369-1.409-13.136-4.228c-3.768-2.82-5.588-6.672-5.457-11.558l0.078-0.234h9.122c0,2.391,0.877,4.398,2.631,6.022
		c1.754,1.625,4.008,2.436,6.763,2.436c2.859,0,5.133-0.85,6.822-2.552s2.534-3.891,2.534-6.569c0-3.222-0.787-5.626-2.359-7.211
		c-1.572-1.586-3.956-2.378-7.153-2.378h-6.315v-7.445h6.317V113.51z"/>
	<path fill="#666666" d="M977.072,145.981H940.47v-6.51l17.735-20.504c2.886-3.403,4.886-6.211,6.004-8.42
		c1.117-2.208,1.676-4.327,1.676-6.353c0-2.418-0.676-4.385-2.027-5.906c-1.352-1.521-3.288-2.28-5.808-2.28
		c-2.938,0-5.186,0.949-6.744,2.845c-1.56,1.897-2.339,4.289-2.339,7.173h-9.162l-0.077-0.234c-0.13-4.859,1.475-8.972,4.814-12.338
		s7.841-5.048,13.508-5.048c5.431,0,9.673,1.455,12.727,4.366c3.053,2.91,4.579,6.731,4.579,11.462c0,3.196-0.85,6.198-2.552,9.003
		c-1.702,2.807-4.503,6.562-8.401,11.265l-11.968,13.722l0.078,0.195h24.557v7.562H977.072z"/>
	<g>
		<path fill="#666666" d="M126.716,430.221v2.705h-5.72v23.384h-3.092v-23.384h-5.759v-2.705H126.716z"/>
		<path fill="#666666" d="M134.524,428.907v10.204c1.546-1.431,3.324-2.242,4.831-2.242c3.015,0,4.832,2.165,4.832,8.426
			c0,2.357-0.116,7.034-0.116,11.016h-2.899c0-3.633,0.078-7.846,0.078-10.204c0-5.062-1.005-6.88-2.899-6.88
			c-1.314,0-2.899,1.276-3.826,2.203v14.881h-2.899v-27.403L134.524,428.907L134.524,428.907z"/>
		<path fill="#666666" d="M153.23,447.111v0.541c0,4.522,1.739,6.494,4.329,6.494c1.778,0,3.517-0.503,4.754-1.044l0.541,1.739
			c-1.778,1.005-3.981,1.778-6.106,1.778c-4.251,0-6.571-2.822-6.571-9.354c0-6.687,2.396-10.358,6.725-10.358
			c4.02,0,6.377,2.667,5.991,10.203L153.23,447.111L153.23,447.111z M160.033,444.135c0-2.938-1.005-5.141-3.324-5.141
			c-2.087,0-3.401,2.628-3.479,6.029h6.802v-0.888H160.033z"/>
		<path fill="#666666" d="M192.73,452.522c-1.469,2.28-3.556,4.02-6.339,4.02c-4.947,0-8.117-4.521-8.117-12.831
			c0-7.77,3.324-13.722,8.349-13.722c2.706,0,4.754,1.739,6.068,4.406l-1.585,1.275c-1.275-2.087-2.628-3.015-4.213-3.015
			c-3.556,0-5.295,4.986-5.295,10.629c0,6.957,2.125,10.436,5.372,10.436c1.739,0,3.247-1.159,4.291-2.512L192.73,452.522z"/>
		<path fill="#666666" d="M200.189,447.111v0.541c0,4.522,1.739,6.494,4.329,6.494c1.778,0,3.517-0.503,4.754-1.044l0.541,1.739
			c-1.778,1.005-3.981,1.778-6.106,1.778c-4.251,0-6.571-2.822-6.571-9.354c0-6.687,2.396-10.358,6.725-10.358
			c4.02,0,6.377,2.667,5.991,10.203L200.189,447.111L200.189,447.111z M206.992,444.135c0-2.938-1.005-5.141-3.324-5.141
			c-2.087,0-3.401,2.628-3.479,6.029h6.802L206.992,444.135L206.992,444.135z"/>
		<path fill="#666666" d="M218.78,437.139l0.271,2.087c1.43-1.197,3.556-2.357,5.063-2.357c2.976,0,4.832,2.01,4.832,8.426
			c0,2.629-0.116,7.189-0.116,11.016h-2.899c0-3.479,0.078-7.575,0.078-10.242c0-5.063-0.966-6.842-2.899-6.842
			c-1.275,0-2.821,1.237-3.826,2.203v14.881h-2.899V437.14L218.78,437.139L218.78,437.139z"/>
		<path fill="#666666" d="M239.033,431.69v5.449h4.329v2.28h-4.329v11.557c0,2.165,0.464,3.324,2.203,3.324
			c0.773,0,1.623-0.193,2.28-0.464l0.232,1.662c-0.889,0.618-2.512,1.005-3.672,1.005c-2.783,0-3.942-1.314-3.942-5.295v-11.789
			h-2.706v-2.28h2.744c0.464-1.7,0.889-3.749,1.198-5.449H239.033z"/>
		<path fill="#666666" d="M251.13,447.111v0.541c0,4.522,1.739,6.494,4.329,6.494c1.778,0,3.517-0.503,4.754-1.044l0.542,1.739
			c-1.778,1.005-3.981,1.778-6.107,1.778c-4.251,0-6.571-2.822-6.571-9.354c0-6.687,2.396-10.358,6.725-10.358
			c4.02,0,6.377,2.667,5.991,10.203L251.13,447.111L251.13,447.111z M257.934,444.135c0-2.938-1.005-5.141-3.324-5.141
			c-2.087,0-3.401,2.628-3.479,6.029h6.802L257.934,444.135L257.934,444.135z"/>
		<path fill="#666666" d="M269.72,437.139l0.31,3.518c1.778-2.744,2.821-3.788,4.097-3.788c0.425,0,0.851,0.116,1.275,0.271
			l-0.348,2.899c-0.464-0.155-0.966-0.232-1.314-0.232c-0.966,0-2.203,1.469-3.517,3.44v13.063h-2.899v-19.171L269.72,437.139
			L269.72,437.139z"/>
		<path fill="#666666" d="M297.316,437.139v2.28h-3.517v16.891H290.9v-16.891h-2.551v-2.28h2.551v-2.744
			c0-3.362,1.16-5.875,4.251-5.875c1.546,0,3.015,0.619,3.749,1.005l-0.58,1.972c-0.58-0.232-1.584-0.541-2.242-0.541
			c-1.624,0-2.28,0.966-2.28,3.053v3.131L297.316,437.139L297.316,437.139z"/>
		<path fill="#666666" d="M314.707,446.261c0,7.111-2.938,10.358-7.344,10.358c-4.136,0-6.764-2.396-6.764-9.663
			c0-7.073,3.015-10.088,7.228-10.088C311.962,436.869,314.707,439.536,314.707,446.261z M303.613,446.145
			c0,5.952,1.391,8.155,4.097,8.155c2.474,0,3.942-2.203,3.942-7.111c0-5.721-1.353-8.001-4.02-8.001
			C305.043,439.188,303.613,441.7,303.613,446.145z"/>
		<path fill="#666666" d="M323.208,437.139l0.31,3.518c1.778-2.744,2.821-3.788,4.097-3.788c0.425,0,0.851,0.116,1.275,0.271
			l-0.348,2.899c-0.464-0.155-0.966-0.232-1.314-0.232c-0.966,0-2.203,1.469-3.518,3.44v13.063h-2.898v-19.171L323.208,437.139
			L323.208,437.139z"/>
		<path fill="#666666" d="M347.056,431.69v5.449h4.329v2.28h-4.329v11.557c0,2.165,0.464,3.324,2.203,3.324
			c0.773,0,1.623-0.193,2.28-0.464l0.232,1.662c-0.889,0.618-2.512,1.005-3.672,1.005c-2.783,0-3.942-1.314-3.942-5.295v-11.789
			h-2.706v-2.28h2.744c0.464-1.7,0.889-3.749,1.198-5.449H347.056z"/>
		<path fill="#666666" d="M360.119,428.907v10.204c1.546-1.431,3.324-2.242,4.831-2.242c3.015,0,4.832,2.165,4.832,8.426
			c0,2.357-0.116,7.034-0.116,11.016h-2.899c0-3.633,0.078-7.846,0.078-10.204c0-5.062-1.005-6.88-2.899-6.88
			c-1.314,0-2.899,1.276-3.826,2.203v14.881h-2.899v-27.403L360.119,428.907L360.119,428.907z"/>
		<path fill="#666666" d="M378.825,447.111v0.541c0,4.522,1.739,6.494,4.329,6.494c1.778,0,3.517-0.503,4.754-1.044l0.541,1.739
			c-1.778,1.005-3.981,1.778-6.106,1.778c-4.251,0-6.571-2.822-6.571-9.354c0-6.687,2.396-10.358,6.725-10.358
			c4.02,0,6.377,2.667,5.991,10.203L378.825,447.111L378.825,447.111z M385.627,444.135c0-2.938-1.005-5.141-3.324-5.141
			c-2.087,0-3.401,2.628-3.479,6.029h6.802L385.627,444.135L385.627,444.135z"/>
		<path fill="#666666" d="M417.166,430.221v2.705h-5.72v23.384h-3.092v-23.384h-5.759v-2.705H417.166z"/>
		<path fill="#666666" d="M424.973,428.907v10.204c1.546-1.431,3.324-2.242,4.831-2.242c3.015,0,4.832,2.165,4.832,8.426
			c0,2.357-0.116,7.034-0.116,11.016h-2.899c0-3.633,0.078-7.846,0.078-10.204c0-5.062-1.005-6.88-2.899-6.88
			c-1.314,0-2.899,1.276-3.826,2.203v14.881h-2.899v-27.403L424.973,428.907L424.973,428.907z"/>
		<path fill="#666666" d="M443.681,447.111v0.541c0,4.522,1.739,6.494,4.329,6.494c1.778,0,3.517-0.503,4.754-1.044l0.542,1.739
			c-1.778,1.005-3.981,1.778-6.107,1.778c-4.251,0-6.571-2.822-6.571-9.354c0-6.687,2.396-10.358,6.725-10.358
			c4.02,0,6.377,2.667,5.991,10.203L443.681,447.111L443.681,447.111z M450.483,444.135c0-2.938-1.005-5.141-3.324-5.141
			c-2.087,0-3.401,2.628-3.479,6.029h6.802L450.483,444.135L450.483,444.135z"/>
		<path fill="#666666" d="M472.707,446.261c0,7.111-2.938,10.358-7.344,10.358c-4.136,0-6.764-2.396-6.764-9.663
			c0-7.073,3.015-10.088,7.228-10.088C469.962,436.869,472.707,439.536,472.707,446.261z M461.613,446.145
			c0,5.952,1.391,8.155,4.097,8.155c2.474,0,3.942-2.203,3.942-7.111c0-5.721-1.353-8.001-4.02-8.001
			C463.043,439.188,461.613,441.7,461.613,446.145z"/>
		<path fill="#666666" d="M481.208,437.139l0.31,3.518c1.778-2.744,2.821-3.788,4.097-3.788c0.425,0,0.851,0.116,1.275,0.271
			l-0.348,2.899c-0.464-0.155-0.966-0.232-1.314-0.232c-0.966,0-2.203,1.469-3.517,3.44v13.063h-2.899v-19.171L481.208,437.139
			L481.208,437.139z"/>
		<path fill="#666666" d="M493.493,447.111v0.541c0,4.522,1.739,6.494,4.329,6.494c1.778,0,3.517-0.503,4.754-1.044l0.541,1.739
			c-1.778,1.005-3.981,1.778-6.106,1.778c-4.251,0-6.571-2.822-6.571-9.354c0-6.687,2.396-10.358,6.725-10.358
			c4.02,0,6.377,2.667,5.991,10.203L493.493,447.111L493.493,447.111z M500.296,444.135c0-2.938-1.005-5.141-3.324-5.141
			c-2.087,0-3.401,2.628-3.479,6.029h6.802L500.296,444.135L500.296,444.135z"/>
		<path fill="#666666" d="M512.664,431.69v5.449h4.329v2.28h-4.329v11.557c0,2.165,0.464,3.324,2.203,3.324
			c0.773,0,1.623-0.193,2.28-0.464l0.232,1.662c-0.889,0.618-2.512,1.005-3.672,1.005c-2.783,0-3.942-1.314-3.942-5.295v-11.789
			h-2.706v-2.28h2.744c0.464-1.7,0.889-3.749,1.198-5.449H512.664z"/>
		<path fill="#666666" d="M524.259,432.231c-1.353,0-1.739-0.348-1.739-1.739s0.386-1.739,1.739-1.739c1.391,0,1.7,0.309,1.7,1.739
			C525.958,431.883,525.573,432.231,524.259,432.231z M525.728,456.31h-2.899v-18.359v-0.812h2.899L525.728,456.31L525.728,456.31z"
			/>
		<path fill="#666666" d="M542.192,440.85c-1.005-0.89-2.28-1.546-3.479-1.546c-2.396,0-3.942,2.938-3.942,6.995
			c0,4.87,1.237,7.847,3.827,7.847c1.7,0,2.937-0.696,4.213-1.739l0.85,1.43c-1.198,1.392-3.324,2.783-5.643,2.783
			c-4.02,0-6.184-3.015-6.184-9.624c0-6.223,2.667-10.05,6.648-10.05c1.816,0,3.556,1.044,4.754,2.436L542.192,440.85z"/>
		<path fill="#666666" d="M548.492,438.26c1.508-0.734,3.904-1.392,6.107-1.392c4.406,0,5.682,2.357,5.682,5.721v13.721h-2.357
			l-0.271-2.164c-1.7,1.584-3.324,2.474-5.179,2.474c-3.247,0-4.832-2.59-4.832-5.296c0-2.976,1.971-6.3,8.271-6.3h1.508v-1.894
			c0-3.015-1.701-3.904-3.981-3.904c-1.507,0-3.13,0.387-4.483,0.928L548.492,438.26z M555.797,447.111
			c-4.058,0-4.986,1.585-4.986,3.672c0,1.933,0.966,3.44,2.628,3.44c1.16,0,2.59-0.812,3.981-2.087v-5.025H555.797z"/>
		<path fill="#666666" d="M570.328,428.907v22.997c0,2.126,0.232,2.551,1.276,2.551h1.082l0.039,1.816
			c-0.734,0.193-1.623,0.31-2.396,0.31c-2.048,0-2.898-0.657-2.898-3.903v-23.771H570.328z"/>
		<path fill="#666666" d="M598.736,430.221v2.628h-7.344v9.663h6.339v2.474h-6.339v11.324H588.3v-26.089H598.736z"/>
		<path fill="#666666" d="M616.669,446.261c0,7.111-2.938,10.358-7.344,10.358c-4.136,0-6.764-2.396-6.764-9.663
			c0-7.073,3.015-10.088,7.228-10.088C613.924,436.869,616.669,439.536,616.669,446.261z M605.576,446.145
			c0,5.952,1.391,8.155,4.097,8.155c2.474,0,3.942-2.203,3.942-7.111c0-5.721-1.353-8.001-4.02-8.001
			C607.005,439.188,605.576,441.7,605.576,446.145z"/>
		<path fill="#666666" d="M632.823,456.31l-0.271-2.087c-1.43,1.236-3.556,2.396-5.102,2.396c-2.938,0-4.793-2.049-4.793-8.465
			c0-2.551,0.116-7.228,0.116-11.016h2.898c0,3.44-0.116,7.614-0.116,10.242c0,5.103,1.005,6.842,2.899,6.842
			c1.275,0,2.821-1.198,3.865-2.165v-14.919h2.899v19.171L632.823,456.31L632.823,456.31z"/>
		<path fill="#666666" d="M644.844,437.139l0.271,2.087c1.43-1.197,3.556-2.357,5.063-2.357c2.976,0,4.831,2.01,4.831,8.426
			c0,2.629-0.116,7.189-0.116,11.016h-2.898c0-3.479,0.077-7.575,0.077-10.242c0-5.063-0.966-6.842-2.899-6.842
			c-1.275,0-2.82,1.237-3.826,2.203v14.881h-2.898V437.14L644.844,437.139L644.844,437.139z"/>
		<path fill="#666666" d="M673.948,428.907v27.403h-2.396l-0.309-2.01c-1.469,1.353-3.363,2.357-4.793,2.357
			c-3.17,0-5.449-3.517-5.449-9.083c0-6.3,2.705-10.59,7.885-10.59c0.811,0,1.545,0.039,2.164,0.077v-8.155h2.898V428.907z
			 M668.576,439.111c-2.821,0-4.562,2.744-4.562,7.459c0,4.87,1.393,7.653,3.518,7.653c0.812,0,2.475-0.967,3.518-2.126v-12.522
			C670.392,439.342,669.387,439.111,668.576,439.111z"/>
		<path fill="#666666" d="M680.633,438.26c1.508-0.734,3.904-1.392,6.107-1.392c4.406,0,5.682,2.357,5.682,5.721v13.721h-2.357
			l-0.271-2.164c-1.699,1.584-3.323,2.474-5.178,2.474c-3.248,0-4.832-2.59-4.832-5.296c0-2.976,1.971-6.3,8.271-6.3h1.508v-1.894
			c0-3.015-1.701-3.904-3.982-3.904c-1.507,0-3.13,0.387-4.482,0.928L680.633,438.26z M687.939,447.111
			c-4.058,0-4.985,1.585-4.985,3.672c0,1.933,0.966,3.44,2.627,3.44c1.16,0,2.59-0.812,3.982-2.087v-5.025H687.939z"/>
		<path fill="#666666" d="M702.312,431.69v5.449h4.328v2.28h-4.328v11.557c0,2.165,0.463,3.324,2.203,3.324
			c0.772,0,1.623-0.193,2.279-0.464l0.232,1.662c-0.889,0.618-2.512,1.005-3.672,1.005c-2.783,0-3.942-1.314-3.942-5.295v-11.789
			h-2.706v-2.28h2.744c0.465-1.7,0.89-3.749,1.199-5.449H702.312z"/>
		<path fill="#666666" d="M713.906,432.231c-1.353,0-1.738-0.348-1.738-1.739s0.386-1.739,1.738-1.739
			c1.392,0,1.701,0.309,1.701,1.739C715.608,431.883,715.22,432.231,713.906,432.231z M715.375,456.31h-2.898v-18.359v-0.812h2.898
			V456.31z"/>
		<path fill="#666666" d="M735.435,446.261c0,7.111-2.938,10.358-7.344,10.358c-4.136,0-6.764-2.396-6.764-9.663
			c0-7.073,3.015-10.088,7.228-10.088C732.691,436.869,735.435,439.536,735.435,446.261z M724.342,446.145
			c0,5.952,1.391,8.155,4.097,8.155c2.474,0,3.942-2.203,3.942-7.111c0-5.721-1.353-8.001-4.02-8.001
			C725.771,439.188,724.342,441.7,724.342,446.145z"/>
		<path fill="#666666" d="M743.938,437.139l0.271,2.087c1.43-1.197,3.556-2.357,5.063-2.357c2.976,0,4.831,2.01,4.831,8.426
			c0,2.629-0.116,7.189-0.116,11.016h-2.898c0-3.479,0.077-7.575,0.077-10.242c0-5.063-0.966-6.842-2.899-6.842
			c-1.275,0-2.82,1.237-3.826,2.203v14.881h-2.898V437.14L743.938,437.139L743.938,437.139z"/>
		<path fill="#666666" d="M768.906,439.729c-0.928-0.348-2.319-0.657-3.093-0.657c-2.164,0-2.937,1.198-2.937,2.86
			c0,4.6,7.614,2.435,7.614,8.89c0,3.092-2.164,5.759-5.914,5.759c-1.932,0-3.479-0.425-4.793-0.966l0.503-2.242
			c1.082,0.464,2.667,0.851,3.672,0.851c2.551,0,3.479-1.005,3.479-2.899c0-4.521-7.537-2.28-7.537-8.967
			c0-3.323,2.126-5.449,5.179-5.449c1.662,0,3.055,0.348,4.252,0.85L768.906,439.729z"/>
		<path fill="#666666" d="M799.091,446.261c0,7.111-2.938,10.358-7.344,10.358c-4.136,0-6.764-2.396-6.764-9.663
			c0-7.073,3.015-10.088,7.228-10.088C796.347,436.869,799.091,439.536,799.091,446.261z M787.999,446.145
			c0,5.952,1.391,8.155,4.097,8.155c2.474,0,3.942-2.203,3.942-7.111c0-5.721-1.353-8.001-4.02-8.001
			C789.427,439.188,787.999,441.7,787.999,446.145z"/>
		<path fill="#666666" d="M811.922,437.139v2.28h-3.517v16.891h-2.899v-16.891h-2.551v-2.28h2.551v-2.744
			c0-3.362,1.16-5.875,4.252-5.875c1.546,0,3.015,0.619,3.749,1.005l-0.579,1.972c-0.58-0.232-1.585-0.541-2.242-0.541
			c-1.623,0-2.28,0.966-2.28,3.053v3.131L811.922,437.139L811.922,437.139z"/>
		<path fill="#666666" d="M830.01,430.221v23.384h7.537v2.705h-10.629v-26.089H830.01z"/>
		<path fill="#666666" d="M844.349,447.111v0.541c0,4.522,1.738,6.494,4.328,6.494c1.777,0,3.518-0.503,4.754-1.044l0.541,1.739
			c-1.777,1.005-3.98,1.778-6.106,1.778c-4.251,0-6.571-2.822-6.571-9.354c0-6.687,2.396-10.358,6.726-10.358
			c4.021,0,6.378,2.667,5.991,10.203L844.349,447.111L844.349,447.111z M851.151,444.135c0-2.938-1.005-5.141-3.323-5.141
			c-2.088,0-3.402,2.628-3.479,6.029h6.802V444.135z"/>
		<path fill="#666666" d="M859.963,438.26c1.508-0.734,3.904-1.392,6.107-1.392c4.406,0,5.682,2.357,5.682,5.721v13.721h-2.357
			l-0.271-2.164c-1.7,1.584-3.324,2.474-5.179,2.474c-3.247,0-4.831-2.59-4.831-5.296c0-2.976,1.971-6.3,8.271-6.3h1.508v-1.894
			c0-3.015-1.7-3.904-3.981-3.904c-1.508,0-3.131,0.387-4.483,0.928L859.963,438.26z M867.267,447.111
			c-4.058,0-4.985,1.585-4.985,3.672c0,1.933,0.966,3.44,2.628,3.44c1.16,0,2.59-0.812,3.981-2.087v-5.025H867.267z"/>
		<path fill="#666666" d="M881.297,437.139l0.31,3.518c1.777-2.744,2.821-3.788,4.097-3.788c0.425,0,0.851,0.116,1.275,0.271
			l-0.348,2.899c-0.464-0.155-0.966-0.232-1.313-0.232c-0.967,0-2.203,1.469-3.518,3.44v13.063h-2.898v-19.171L881.297,437.139
			L881.297,437.139z"/>
		<path fill="#666666" d="M894.594,437.139l0.271,2.087c1.43-1.197,3.556-2.357,5.063-2.357c2.976,0,4.831,2.01,4.831,8.426
			c0,2.629-0.116,7.189-0.116,11.016h-2.898c0-3.479,0.077-7.575,0.077-10.242c0-5.063-0.966-6.842-2.899-6.842
			c-1.275,0-2.82,1.237-3.826,2.203v14.881h-2.898V437.14L894.594,437.139L894.594,437.139z"/>
		<path fill="#666666" d="M913.301,432.231c-1.354,0-1.74-0.348-1.74-1.739s0.387-1.739,1.74-1.739c1.391,0,1.699,0.309,1.699,1.739
			C915,431.883,914.615,432.231,913.301,432.231z M914.769,456.31h-2.898v-18.359v-0.812h2.898V456.31z"/>
		<path fill="#666666" d="M924.392,437.139l0.271,2.087c1.43-1.197,3.556-2.357,5.063-2.357c2.976,0,4.831,2.01,4.831,8.426
			c0,2.629-0.116,7.189-0.116,11.016h-2.898c0-3.479,0.077-7.575,0.077-10.242c0-5.063-0.966-6.842-2.899-6.842
			c-1.275,0-2.82,1.237-3.826,2.203v14.881h-2.898V437.14L924.392,437.139L924.392,437.139z"/>
		<path fill="#666666" d="M950.598,453.333c-1.354,1.276-3.17,2.281-4.6,2.281c-3.17,0-5.45-2.938-5.45-8.929
			c0-6.029,2.59-9.817,7.847-9.817c1.894,0,3.748,0.31,5.102,0.58v18.204c0,5.721-2.203,7.498-6.146,7.498
			c-1.778,0-3.903-0.386-5.488-1.005l0.192-1.546c6.648,0.773,8.543,0,8.543-4.367L950.598,453.333L950.598,453.333z
			 M950.598,439.575c-0.734-0.31-1.74-0.541-2.513-0.541c-2.783,0-4.522,1.854-4.522,6.647c0,5.295,1.354,7.498,3.439,7.498
			c1.121,0,2.513-1.082,3.596-2.203V439.575z"/>
		<path fill="#666666" d="M959.254,461.489c1.701-1.236,2.822-2.937,2.59-4.02c-0.077-2.048-1.043-1.12-1.043-3.556
			c0-1.43,0.463-2.28,2.241-2.28s2.203,0.851,2.203,3.015c0,2.436-1.082,4.87-4.985,8.078L959.254,461.489z"/>
		<path fill="#666666" d="M985.574,430.221v26.089h-3.092v-26.089H985.574z"/>
		<path fill="#666666" d="M995.43,437.139l0.271,2.087c1.43-1.197,3.556-2.357,5.062-2.357c2.977,0,4.832,2.01,4.832,8.426
			c0,2.629-0.116,7.189-0.116,11.016h-2.899c0-3.479,0.078-7.575,0.078-10.242c0-5.063-0.967-6.842-2.898-6.842
			c-1.275,0-2.822,1.237-3.827,2.203v14.881h-2.898V437.14L995.43,437.139L995.43,437.139z"/>
		<path fill="#666666" d="M1019.432,437.139v2.28h-3.517v16.891h-2.899v-16.891h-2.551v-2.28h2.551v-2.744
			c0-3.362,1.16-5.875,4.252-5.875c1.546,0,3.015,0.619,3.749,1.005l-0.579,1.972c-0.58-0.232-1.585-0.541-2.242-0.541
			c-1.623,0-2.28,0.966-2.28,3.053v3.131L1019.432,437.139L1019.432,437.139z"/>
		<path fill="#666666" d="M1025.922,447.111v0.541c0,4.522,1.74,6.494,4.329,6.494c1.778,0,3.517-0.503,4.754-1.044l0.541,1.739
			c-1.778,1.005-3.981,1.778-6.106,1.778c-4.252,0-6.57-2.822-6.57-9.354c0-6.687,2.396-10.358,6.725-10.358
			c4.02,0,6.377,2.667,5.991,10.203L1025.922,447.111L1025.922,447.111z M1032.724,444.135c0-2.938-1.005-5.141-3.324-5.141
			c-2.087,0-3.4,2.628-3.479,6.029h6.803V444.135z"/>
		<path fill="#666666" d="M1044.511,437.139l0.311,3.518c1.777-2.744,2.82-3.788,4.096-3.788c0.426,0,0.852,0.116,1.275,0.271
			l-0.348,2.899c-0.463-0.155-0.966-0.232-1.313-0.232c-0.966,0-2.203,1.469-3.518,3.44v13.063h-2.898v-19.171L1044.511,437.139
			L1044.511,437.139z"/>
		<path fill="#666666" d="M1056.797,447.111v0.541c0,4.522,1.739,6.494,4.328,6.494c1.778,0,3.518-0.503,4.754-1.044l0.542,1.739
			c-1.778,1.005-3.981,1.778-6.106,1.778c-4.252,0-6.571-2.822-6.571-9.354c0-6.687,2.396-10.358,6.726-10.358
			c4.02,0,6.377,2.667,5.99,10.203L1056.797,447.111L1056.797,447.111z M1063.599,444.135c0-2.938-1.006-5.141-3.324-5.141
			c-2.088,0-3.401,2.628-3.479,6.029h6.803V444.135z"/>
		<path fill="#666666" d="M1075.386,437.139l0.271,2.087c1.43-1.197,3.556-2.357,5.062-2.357c2.977,0,4.832,2.01,4.832,8.426
			c0,2.629-0.116,7.189-0.116,11.016h-2.899c0-3.479,0.078-7.575,0.078-10.242c0-5.063-0.967-6.842-2.898-6.842
			c-1.275,0-2.822,1.237-3.827,2.203v14.881h-2.898V437.14L1075.386,437.139L1075.386,437.139z"/>
		<path fill="#666666" d="M1101.901,440.85c-1.005-0.89-2.28-1.546-3.479-1.546c-2.396,0-3.942,2.938-3.942,6.995
			c0,4.87,1.236,7.847,3.826,7.847c1.701,0,2.938-0.696,4.213-1.739l0.851,1.43c-1.198,1.392-3.323,2.783-5.644,2.783
			c-4.02,0-6.184-3.015-6.184-9.624c0-6.223,2.667-10.05,6.648-10.05c1.816,0,3.556,1.044,4.754,2.436L1101.901,440.85z"/>
		<path fill="#666666" d="M1110.713,447.111v0.541c0,4.522,1.74,6.494,4.329,6.494c1.778,0,3.517-0.503,4.754-1.044l0.541,1.739
			c-1.778,1.005-3.981,1.778-6.106,1.778c-4.252,0-6.57-2.822-6.57-9.354c0-6.687,2.396-10.358,6.725-10.358
			c4.02,0,6.377,2.667,5.991,10.203L1110.713,447.111L1110.713,447.111z M1117.516,444.135c0-2.938-1.005-5.141-3.324-5.141
			c-2.087,0-3.4,2.628-3.479,6.029h6.803V444.135z"/>
		<path fill="#666666" d="M1124.975,461.489c1.7-1.236,2.821-2.937,2.589-4.02c-0.076-2.048-1.043-1.12-1.043-3.556
			c0-1.43,0.464-2.28,2.242-2.28c1.777,0,2.203,0.851,2.203,3.015c0,2.436-1.082,4.87-4.986,8.078L1124.975,461.489z"/>
		<path fill="#666666" d="M117.827,476.602v26.089h-3.092v-26.089H117.827z"/>
		<path fill="#666666" d="M126.716,483.52l0.271,2.087c1.43-1.197,3.556-2.357,5.063-2.357c2.976,0,4.832,2.01,4.832,8.426
			c0,2.629-0.116,7.189-0.116,11.016h-2.899c0-3.479,0.078-7.575,0.078-10.242c0-5.063-0.966-6.842-2.899-6.842
			c-1.275,0-2.821,1.237-3.827,2.203v14.881h-2.898v-19.171L126.716,483.52L126.716,483.52z"/>
		<path fill="#666666" d="M149.752,483.52v2.28h-3.517v16.891h-2.899V485.8h-2.551v-2.28h2.551v-2.744
			c0-3.362,1.16-5.875,4.251-5.875c1.546,0,3.015,0.619,3.749,1.005l-0.58,1.972c-0.58-0.232-1.584-0.541-2.242-0.541
			c-1.624,0-2.28,0.966-2.28,3.053v3.131L149.752,483.52L149.752,483.52z"/>
		<path fill="#666666" d="M166.175,492.642c0,7.111-2.938,10.358-7.344,10.358c-4.136,0-6.764-2.396-6.764-9.663
			c0-7.073,3.015-10.088,7.228-10.088C163.431,483.25,166.175,485.917,166.175,492.642z M155.082,492.526
			c0,5.952,1.391,8.155,4.097,8.155c2.474,0,3.942-2.203,3.942-7.111c0-5.721-1.353-8.001-4.02-8.001
			C156.512,485.569,155.082,488.081,155.082,492.526z"/>
		<path fill="#666666" d="M173.711,483.52l0.31,3.518c1.778-2.744,2.821-3.788,4.097-3.788c0.425,0,0.851,0.116,1.275,0.271
			l-0.348,2.899c-0.464-0.155-0.966-0.232-1.314-0.232c-0.966,0-2.203,1.469-3.518,3.44v13.063h-2.898V483.52L173.711,483.52
			L173.711,483.52z"/>
		<path fill="#666666" d="M186.04,483.52l0.271,2.049c1.43-1.198,3.479-2.319,4.986-2.319c1.816,0,3.092,1.082,3.788,2.783
			c1.778-1.546,3.556-2.783,5.411-2.783c2.744,0,4.638,1.778,4.638,8.503c0,2.552-0.116,7.112-0.116,10.938h-2.899
			c0-3.479,0.116-7.575,0.116-10.204c0-5.411-1.16-6.88-2.744-6.88c-1.275,0-2.822,1.392-3.865,2.358
			c0.116,1.159,0.193,2.589,0.193,3.98v10.745h-2.899v-10.86c0-4.755-1.082-6.224-2.628-6.224c-1.353,0-2.783,1.237-3.75,2.203
			v14.881h-2.898v-19.171h2.396V483.52z"/>
		<path fill="#666666" d="M210.699,484.641c1.508-0.734,3.904-1.392,6.107-1.392c4.406,0,5.682,2.357,5.682,5.721v13.721h-2.357
			l-0.271-2.164c-1.7,1.584-3.324,2.474-5.179,2.474c-3.247,0-4.832-2.59-4.832-5.296c0-2.976,1.971-6.3,8.271-6.3h1.508v-1.894
			c0-3.015-1.701-3.904-3.981-3.904c-1.507,0-3.13,0.387-4.483,0.928L210.699,484.641z M218.004,493.492
			c-4.058,0-4.986,1.585-4.986,3.672c0,1.933,0.966,3.44,2.628,3.44c1.16,0,2.59-0.812,3.981-2.087v-5.025H218.004z"/>
		<path fill="#666666" d="M231.411,478.071v5.449h4.329v2.28h-4.329v11.557c0,2.165,0.464,3.324,2.203,3.324
			c0.773,0,1.623-0.193,2.28-0.464l0.232,1.662c-0.889,0.618-2.512,1.005-3.672,1.005c-2.783,0-3.942-1.314-3.942-5.295V485.8
			h-2.706v-2.28h2.744c0.464-1.7,0.889-3.749,1.198-5.449H231.411z"/>
		<path fill="#666666" d="M242.04,478.612c-1.353,0-1.739-0.348-1.739-1.739s0.386-1.739,1.739-1.739c1.391,0,1.7,0.309,1.7,1.739
			C243.741,478.264,243.353,478.612,242.04,478.612z M243.509,502.691h-2.899v-18.359v-0.812h2.899V502.691z"/>
		<path fill="#666666" d="M262.601,492.642c0,7.111-2.938,10.358-7.344,10.358c-4.136,0-6.764-2.396-6.764-9.663
			c0-7.073,3.015-10.088,7.228-10.088C259.858,483.25,262.601,485.917,262.601,492.642z M251.509,492.526
			c0,5.952,1.391,8.155,4.097,8.155c2.474,0,3.942-2.203,3.942-7.111c0-5.721-1.353-8.001-4.02-8.001
			C252.939,485.569,251.509,488.081,251.509,492.526z"/>
		<path fill="#666666" d="M270.137,483.52l0.271,2.087c1.43-1.197,3.556-2.357,5.063-2.357c2.976,0,4.832,2.01,4.832,8.426
			c0,2.629-0.116,7.189-0.116,11.016h-2.899c0-3.479,0.078-7.575,0.078-10.242c0-5.063-0.966-6.842-2.899-6.842
			c-1.275,0-2.821,1.237-3.826,2.203v14.881h-2.899v-19.171L270.137,483.52L270.137,483.52z"/>
		<path fill="#666666" d="M284.94,507.87c1.701-1.236,2.821-2.937,2.589-4.02c-0.077-2.048-1.043-1.12-1.043-3.556
			c0-1.43,0.464-2.28,2.242-2.28s2.203,0.851,2.203,3.015c0,2.436-1.082,4.87-4.986,8.078L284.94,507.87z"/>
		<path fill="#666666" d="M309.328,476.602v26.089h-3.092v-26.089H309.328z"/>
		<path fill="#666666" d="M318.218,483.52l0.271,2.087c1.43-1.197,3.556-2.357,5.063-2.357c2.976,0,4.832,2.01,4.832,8.426
			c0,2.629-0.116,7.189-0.116,11.016h-2.899c0-3.479,0.078-7.575,0.078-10.242c0-5.063-0.966-6.842-2.899-6.842
			c-1.275,0-2.821,1.237-3.827,2.203v14.881h-2.898v-19.171L318.218,483.52L318.218,483.52z"/>
		<path fill="#666666" d="M337.504,478.071v5.449h4.329v2.28h-4.329v11.557c0,2.165,0.464,3.324,2.203,3.324
			c0.773,0,1.623-0.193,2.28-0.464l0.232,1.662c-0.889,0.618-2.512,1.005-3.672,1.005c-2.783,0-3.942-1.314-3.942-5.295V485.8H331.9
			v-2.28h2.744c0.464-1.7,0.889-3.749,1.198-5.449H337.504z"/>
		<path fill="#666666" d="M348.637,493.492v0.541c0,4.522,1.739,6.494,4.329,6.494c1.778,0,3.517-0.503,4.754-1.044l0.541,1.739
			c-1.778,1.005-3.981,1.778-6.106,1.778c-4.251,0-6.571-2.822-6.571-9.354c0-6.687,2.396-10.358,6.725-10.358
			c4.02,0,6.377,2.667,5.991,10.203L348.637,493.492L348.637,493.492z M355.439,490.516c0-2.938-1.005-5.141-3.324-5.141
			c-2.087,0-3.401,2.628-3.479,6.029h6.802L355.439,490.516L355.439,490.516z"/>
		<path fill="#666666" d="M366.762,475.288v22.997c0,2.126,0.231,2.551,1.275,2.551h1.082l0.039,1.816
			c-0.734,0.193-1.623,0.31-2.396,0.31c-2.049,0-2.899-0.657-2.899-3.903v-23.771H366.762z"/>
		<path fill="#666666" d="M376.501,475.288v22.997c0,2.126,0.232,2.551,1.276,2.551h1.082l0.039,1.816
			c-0.734,0.193-1.623,0.31-2.396,0.31c-2.048,0-2.898-0.657-2.898-3.903v-23.771H376.501z"/>
		<path fill="#666666" d="M384.772,478.612c-1.353,0-1.739-0.348-1.739-1.739s0.386-1.739,1.739-1.739c1.391,0,1.7,0.309,1.7,1.739
			C386.473,478.264,386.086,478.612,384.772,478.612z M386.241,502.691h-2.898v-18.359v-0.812h2.898V502.691z"/>
		<path fill="#666666" d="M401.431,499.714c-1.353,1.276-3.169,2.281-4.6,2.281c-3.169,0-5.45-2.938-5.45-8.929
			c0-6.029,2.59-9.817,7.846-9.817c1.894,0,3.749,0.31,5.102,0.58v18.204c0,5.721-2.203,7.498-6.146,7.498
			c-1.778,0-3.904-0.386-5.488-1.005l0.193-1.546c6.648,0.773,8.542,0,8.542-4.367L401.431,499.714L401.431,499.714z
			 M401.431,485.956c-0.734-0.31-1.739-0.541-2.512-0.541c-2.783,0-4.522,1.854-4.522,6.647c0,5.295,1.353,7.498,3.44,7.498
			c1.121,0,2.513-1.082,3.595-2.203L401.431,485.956L401.431,485.956z"/>
		<path fill="#666666" d="M412.561,493.492v0.541c0,4.522,1.739,6.494,4.329,6.494c1.778,0,3.517-0.503,4.754-1.044l0.542,1.739
			c-1.778,1.005-3.981,1.778-6.107,1.778c-4.251,0-6.571-2.822-6.571-9.354c0-6.687,2.396-10.358,6.725-10.358
			c4.02,0,6.377,2.667,5.991,10.203L412.561,493.492L412.561,493.492z M419.363,490.516c0-2.938-1.005-5.141-3.324-5.141
			c-2.087,0-3.401,2.628-3.479,6.029h6.802L419.363,490.516L419.363,490.516z"/>
		<path fill="#666666" d="M430.185,483.52l0.271,2.087c1.43-1.197,3.556-2.357,5.063-2.357c2.976,0,4.832,2.01,4.832,8.426
			c0,2.629-0.116,7.189-0.116,11.016h-2.899c0-3.479,0.078-7.575,0.078-10.242c0-5.063-0.966-6.842-2.899-6.842
			c-1.275,0-2.821,1.237-3.826,2.203v14.881h-2.899v-19.171L430.185,483.52L430.185,483.52z"/>
		<path fill="#666666" d="M455.733,487.231c-1.005-0.89-2.28-1.546-3.479-1.546c-2.396,0-3.942,2.938-3.942,6.995
			c0,4.87,1.237,7.847,3.827,7.847c1.7,0,2.937-0.696,4.213-1.739l0.85,1.43c-1.198,1.392-3.324,2.783-5.643,2.783
			c-4.02,0-6.184-3.015-6.184-9.624c0-6.223,2.667-10.05,6.648-10.05c1.816,0,3.556,1.044,4.754,2.436L455.733,487.231z"/>
		<path fill="#666666" d="M463.579,493.492v0.541c0,4.522,1.739,6.494,4.329,6.494c1.778,0,3.517-0.503,4.754-1.044l0.541,1.739
			c-1.778,1.005-3.981,1.778-6.106,1.778c-4.251,0-6.571-2.822-6.571-9.354c0-6.687,2.396-10.358,6.725-10.358
			c4.02,0,6.377,2.667,5.991,10.203L463.579,493.492L463.579,493.492z M470.382,490.516c0-2.938-1.005-5.141-3.324-5.141
			c-2.087,0-3.401,2.628-3.479,6.029h6.802L470.382,490.516L470.382,490.516z"/>
		<path fill="#666666" d="M476.875,507.87c1.701-1.236,2.821-2.937,2.589-4.02c-0.077-2.048-1.043-1.12-1.043-3.556
			c0-1.43,0.464-2.28,2.242-2.28s2.203,0.851,2.203,3.015c0,2.436-1.082,4.87-4.986,8.078L476.875,507.87z"/>
		<path fill="#666666" d="M520.549,502.691h-3.208c-0.116-8.001-0.425-16.581-1.043-23.268h-0.039l-6.339,23.268h-2.165
			l-6.068-23.229h-0.039c-0.619,6.531-0.851,15.228-0.966,23.229h-3.015c0.193-8.349,0.734-17.663,1.507-26.089h4.754l5.141,20.446
			h0.039l5.256-20.446h4.677C519.739,485.028,520.357,494.342,520.549,502.691z"/>
		<path fill="#666666" d="M526,484.641c1.508-0.734,3.904-1.392,6.107-1.392c4.406,0,5.682,2.357,5.682,5.721v13.721h-2.357
			l-0.271-2.164c-1.7,1.584-3.324,2.474-5.179,2.474c-3.247,0-4.832-2.59-4.832-5.296c0-2.976,1.971-6.3,8.271-6.3h1.508v-1.894
			c0-3.015-1.701-3.904-3.981-3.904c-1.507,0-3.13,0.387-4.483,0.928L526,484.641z M533.305,493.492
			c-4.058,0-4.986,1.585-4.986,3.672c0,1.933,0.966,3.44,2.628,3.44c1.16,0,2.59-0.812,3.981-2.087v-5.025H533.305z"/>
		<path fill="#666666" d="M546.711,478.071v5.449h4.329v2.28h-4.329v11.557c0,2.165,0.464,3.324,2.203,3.324
			c0.773,0,1.623-0.193,2.28-0.464l0.232,1.662c-0.889,0.618-2.512,1.005-3.672,1.005c-2.783,0-3.942-1.314-3.942-5.295V485.8
			h-2.706v-2.28h2.744c0.464-1.7,0.889-3.749,1.198-5.449H546.711z"/>
		<path fill="#666666" d="M558.809,475.288v10.204c1.546-1.431,3.324-2.242,4.831-2.242c3.015,0,4.832,2.165,4.832,8.426
			c0,2.357-0.116,7.034-0.116,11.016h-2.899c0-3.633,0.078-7.846,0.078-10.204c0-5.062-1.005-6.88-2.899-6.88
			c-1.314,0-2.899,1.276-3.826,2.203v14.881h-2.899v-27.403L558.809,475.288L558.809,475.288z"/>
		<path fill="#666666" d="M576.549,493.492v0.541c0,4.522,1.739,6.494,4.329,6.494c1.778,0,3.517-0.503,4.754-1.044l0.541,1.739
			c-1.778,1.005-3.981,1.778-6.106,1.778c-4.251,0-6.571-2.822-6.571-9.354c0-6.687,2.396-10.358,6.725-10.358
			c4.02,0,6.377,2.667,5.991,10.203L576.549,493.492L576.549,493.492z M583.352,490.516c0-2.938-1.005-5.141-3.324-5.141
			c-2.087,0-3.401,2.628-3.479,6.029h6.802L583.352,490.516L583.352,490.516z"/>
		<path fill="#666666" d="M594.172,483.52l0.271,2.049c1.43-1.198,3.479-2.319,4.986-2.319c1.816,0,3.092,1.082,3.788,2.783
			c1.778-1.546,3.556-2.783,5.411-2.783c2.744,0,4.638,1.778,4.638,8.503c0,2.552-0.116,7.112-0.116,10.938h-2.899
			c0-3.479,0.116-7.575,0.116-10.204c0-5.411-1.16-6.88-2.744-6.88c-1.275,0-2.822,1.392-3.865,2.358
			c0.116,1.159,0.193,2.589,0.193,3.98v10.745h-2.899v-10.86c0-4.755-1.082-6.224-2.628-6.224c-1.353,0-2.783,1.237-3.749,2.203
			v14.881h-2.899v-19.171h2.396V483.52z"/>
		<path fill="#666666" d="M618.832,484.641c1.508-0.734,3.904-1.392,6.107-1.392c4.406,0,5.682,2.357,5.682,5.721v13.721h-2.357
			l-0.271-2.164c-1.7,1.584-3.324,2.474-5.179,2.474c-3.247,0-4.832-2.59-4.832-5.296c0-2.976,1.971-6.3,8.271-6.3h1.508v-1.894
			c0-3.015-1.701-3.904-3.981-3.904c-1.507,0-3.13,0.387-4.483,0.928L618.832,484.641z M626.137,493.492
			c-4.058,0-4.986,1.585-4.986,3.672c0,1.933,0.966,3.44,2.628,3.44c1.16,0,2.59-0.812,3.981-2.087v-5.025H626.137z"/>
		<path fill="#666666" d="M639.544,478.071v5.449h4.329v2.28h-4.329v11.557c0,2.165,0.464,3.324,2.203,3.324
			c0.772,0,1.623-0.193,2.28-0.464l0.232,1.662c-0.89,0.618-2.513,1.005-3.672,1.005c-2.783,0-3.942-1.314-3.942-5.295V485.8h-2.706
			v-2.28h2.744c0.464-1.7,0.889-3.749,1.198-5.449H639.544z"/>
		<path fill="#666666" d="M650.172,478.612c-1.353,0-1.739-0.348-1.739-1.739s0.387-1.739,1.739-1.739c1.392,0,1.7,0.309,1.7,1.739
			C651.874,478.264,651.487,478.612,650.172,478.612z M651.642,502.691h-2.899v-18.359v-0.812h2.899V502.691z"/>
		<path fill="#666666" d="M667.14,487.231c-1.005-0.89-2.28-1.546-3.479-1.546c-2.396,0-3.942,2.938-3.942,6.995
			c0,4.87,1.236,7.847,3.826,7.847c1.701,0,2.938-0.696,4.213-1.739l0.851,1.43c-1.198,1.392-3.323,2.783-5.644,2.783
			c-4.02,0-6.184-3.015-6.184-9.624c0-6.223,2.667-10.05,6.648-10.05c1.816,0,3.556,1.044,4.754,2.436L667.14,487.231z"/>
		<path fill="#666666" d="M680.745,486.11c-0.928-0.348-2.319-0.657-3.092-0.657c-2.164,0-2.938,1.198-2.938,2.86
			c0,4.6,7.613,2.435,7.613,8.89c0,3.092-2.164,5.759-5.913,5.759c-1.933,0-3.479-0.425-4.792-0.966l0.502-2.242
			c1.082,0.464,2.667,0.851,3.672,0.851c2.551,0,3.479-1.005,3.479-2.899c0-4.521-7.537-2.28-7.537-8.967
			c0-3.323,2.126-5.449,5.18-5.449c1.662,0,3.053,0.348,4.252,0.85L680.745,486.11z"/>
		<path fill="#666666" d="M695.586,484.641c1.508-0.734,3.903-1.392,6.106-1.392c4.406,0,5.682,2.357,5.682,5.721v13.721h-2.357
			l-0.271-2.164c-1.701,1.584-3.324,2.474-5.18,2.474c-3.246,0-4.831-2.59-4.831-5.296c0-2.976,1.972-6.3,8.271-6.3h1.508v-1.894
			c0-3.015-1.7-3.904-3.98-3.904c-1.508,0-3.131,0.387-4.484,0.928L695.586,484.641z M702.891,493.492
			c-4.059,0-4.986,1.585-4.986,3.672c0,1.933,0.967,3.44,2.629,3.44c1.159,0,2.59-0.812,3.98-2.087v-5.025H702.891z"/>
		<path fill="#666666" d="M715.953,483.52l0.271,2.087c1.43-1.197,3.556-2.357,5.062-2.357c2.977,0,4.832,2.01,4.832,8.426
			c0,2.629-0.116,7.189-0.116,11.016h-2.899c0-3.479,0.078-7.575,0.078-10.242c0-5.063-0.967-6.842-2.898-6.842
			c-1.275,0-2.822,1.237-3.827,2.203v14.881h-2.898v-19.171L715.953,483.52L715.953,483.52z"/>
		<path fill="#666666" d="M744.092,475.288v27.403h-2.396l-0.31-2.01c-1.469,1.353-3.362,2.357-4.793,2.357
			c-3.169,0-5.45-3.517-5.45-9.083c0-6.3,2.706-10.59,7.885-10.59c0.812,0,1.547,0.039,2.165,0.077v-8.155h2.899V475.288z
			 M738.719,485.492c-2.822,0-4.561,2.744-4.561,7.459c0,4.87,1.391,7.653,3.518,7.653c0.811,0,2.473-0.967,3.517-2.126v-12.522
			C740.536,485.723,739.531,485.492,738.719,485.492z"/>
		<path fill="#666666" d="M781.968,502.691h-3.208c-0.115-8.001-0.426-16.581-1.043-23.268h-0.039l-6.339,23.268h-2.165
			l-6.067-23.229h-0.038c-0.619,6.531-0.852,15.228-0.967,23.229h-3.015c0.192-8.349,0.734-17.663,1.507-26.089h4.754l5.141,20.446
			h0.039l5.256-20.446h4.678C781.156,485.028,781.775,494.342,781.968,502.691z"/>
		<path fill="#666666" d="M789.427,478.612c-1.354,0-1.74-0.348-1.74-1.739s0.387-1.739,1.74-1.739c1.391,0,1.699,0.309,1.699,1.739
			C791.126,478.264,790.741,478.612,789.427,478.612z M790.896,502.691h-2.898v-18.359v-0.812h2.898V502.691z"/>
		<path fill="#666666" d="M806.395,487.231c-1.006-0.89-2.281-1.546-3.479-1.546c-2.396,0-3.943,2.938-3.943,6.995
			c0,4.87,1.237,7.847,3.827,7.847c1.7,0,2.937-0.696,4.213-1.739l0.851,1.43c-1.199,1.392-3.324,2.783-5.644,2.783
			c-4.02,0-6.185-3.015-6.185-9.624c0-6.223,2.668-10.05,6.648-10.05c1.816,0,3.556,1.044,4.754,2.436L806.395,487.231z"/>
		<path fill="#666666" d="M814.703,483.52l0.311,3.518c1.777-2.744,2.82-3.788,4.096-3.788c0.426,0,0.852,0.116,1.275,0.271
			l-0.348,2.899c-0.463-0.155-0.966-0.232-1.313-0.232c-0.966,0-2.203,1.469-3.518,3.44v13.063h-2.898V483.52L814.703,483.52
			L814.703,483.52z"/>
		<path fill="#666666" d="M837.12,492.642c0,7.111-2.938,10.358-7.344,10.358c-4.135,0-6.764-2.396-6.764-9.663
			c0-7.073,3.016-10.088,7.229-10.088C834.375,483.25,837.12,485.917,837.12,492.642z M826.027,492.526
			c0,5.952,1.391,8.155,4.096,8.155c2.475,0,3.943-2.203,3.943-7.111c0-5.721-1.354-8.001-4.02-8.001
			C827.458,485.569,826.027,488.081,826.027,492.526z"/>
		<path fill="#666666" d="M844.192,493.492v0.541c0,4.522,1.74,6.494,4.329,6.494c1.778,0,3.517-0.503,4.754-1.044l0.541,1.739
			c-1.778,1.005-3.981,1.778-6.106,1.778c-4.252,0-6.57-2.822-6.57-9.354c0-6.687,2.396-10.358,6.725-10.358
			c4.02,0,6.377,2.667,5.991,10.203L844.192,493.492L844.192,493.492z M850.995,490.516c0-2.938-1.005-5.141-3.324-5.141
			c-2.087,0-3.4,2.628-3.479,6.029h6.803V490.516z"/>
		<path fill="#666666" d="M868.657,487.231c-1.005-0.89-2.28-1.546-3.479-1.546c-2.396,0-3.942,2.938-3.942,6.995
			c0,4.87,1.236,7.847,3.826,7.847c1.701,0,2.938-0.696,4.213-1.739l0.851,1.43c-1.198,1.392-3.323,2.783-5.644,2.783
			c-4.02,0-6.184-3.015-6.184-9.624c0-6.223,2.667-10.05,6.648-10.05c1.816,0,3.556,1.044,4.754,2.436L868.657,487.231z"/>
		<path fill="#666666" d="M887.402,492.642c0,7.111-2.938,10.358-7.344,10.358c-4.136,0-6.764-2.396-6.764-9.663
			c0-7.073,3.015-10.088,7.228-10.088C884.659,483.25,887.402,485.917,887.402,492.642z M876.31,492.526
			c0,5.952,1.392,8.155,4.097,8.155c2.474,0,3.942-2.203,3.942-7.111c0-5.721-1.353-8.001-4.02-8.001
			C877.74,485.569,876.31,488.081,876.31,492.526z"/>
		<path fill="#666666" d="M894.938,483.52l0.271,2.087c1.43-1.197,3.556-2.357,5.062-2.357c2.977,0,4.832,2.01,4.832,8.426
			c0,2.629-0.116,7.189-0.116,11.016h-2.899c0-3.479,0.078-7.575,0.078-10.242c0-5.063-0.967-6.842-2.898-6.842
			c-1.275,0-2.822,1.237-3.827,2.203v14.881h-2.898v-19.171L894.938,483.52L894.938,483.52z"/>
		<path fill="#666666" d="M924.082,492.642c0,7.111-2.938,10.358-7.344,10.358c-4.136,0-6.764-2.396-6.764-9.663
			c0-7.073,3.015-10.088,7.228-10.088C921.337,483.25,924.082,485.917,924.082,492.642z M912.989,492.526
			c0,5.952,1.391,8.155,4.097,8.155c2.474,0,3.942-2.203,3.942-7.111c0-5.721-1.353-8.001-4.02-8.001
			C914.417,485.569,912.989,488.081,912.989,492.526z"/>
		<path fill="#666666" d="M931.618,483.52l0.271,2.049c1.43-1.198,3.479-2.319,4.985-2.319c1.816,0,3.092,1.082,3.788,2.783
			c1.778-1.546,3.556-2.783,5.411-2.783c2.744,0,4.639,1.778,4.639,8.503c0,2.552-0.117,7.112-0.117,10.938h-2.898
			c0-3.479,0.116-7.575,0.116-10.204c0-5.411-1.159-6.88-2.744-6.88c-1.275,0-2.821,1.392-3.865,2.358
			c0.116,1.159,0.193,2.589,0.193,3.98v10.745h-2.899v-10.86c0-4.755-1.082-6.224-2.627-6.224c-1.354,0-2.783,1.237-3.75,2.203
			v14.881h-2.898v-19.171h2.395V483.52z"/>
		<path fill="#666666" d="M958.286,478.612c-1.353,0-1.738-0.348-1.738-1.739s0.386-1.739,1.738-1.739
			c1.392,0,1.701,0.309,1.701,1.739C959.987,478.264,959.599,478.612,958.286,478.612z M959.754,502.691h-2.898v-18.359v-0.812
			h2.898V502.691z"/>
		<path fill="#666666" d="M975.251,487.231c-1.004-0.89-2.279-1.546-3.479-1.546c-2.396,0-3.941,2.938-3.941,6.995
			c0,4.87,1.236,7.847,3.826,7.847c1.7,0,2.938-0.696,4.213-1.739l0.85,1.43c-1.197,1.392-3.323,2.783-5.643,2.783
			c-4.02,0-6.184-3.015-6.184-9.624c0-6.223,2.666-10.05,6.647-10.05c1.816,0,3.556,1.044,4.754,2.436L975.251,487.231z"/>
		<path fill="#666666" d="M988.858,486.11c-0.928-0.348-2.319-0.657-3.092-0.657c-2.164,0-2.938,1.198-2.938,2.86
			c0,4.6,7.613,2.435,7.613,8.89c0,3.092-2.164,5.759-5.913,5.759c-1.933,0-3.479-0.425-4.792-0.966l0.502-2.242
			c1.082,0.464,2.667,0.851,3.672,0.851c2.551,0,3.479-1.005,3.479-2.899c0-4.521-7.537-2.28-7.537-8.967
			c0-3.323,2.126-5.449,5.18-5.449c1.662,0,3.053,0.348,4.252,0.85L988.858,486.11z"/>
		<path fill="#666666" d="M1003.698,484.641c1.508-0.734,3.903-1.392,6.106-1.392c4.406,0,5.682,2.357,5.682,5.721v13.721h-2.357
			l-0.271-2.164c-1.7,1.584-3.323,2.474-5.179,2.474c-3.247,0-4.832-2.59-4.832-5.296c0-2.976,1.972-6.3,8.271-6.3h1.508v-1.894
			c0-3.015-1.701-3.904-3.981-3.904c-1.507,0-3.13,0.387-4.483,0.928L1003.698,484.641z M1011.004,493.492
			c-4.059,0-4.986,1.585-4.986,3.672c0,1.933,0.967,3.44,2.628,3.44c1.159,0,2.59-0.812,3.981-2.087v-5.025H1011.004z"/>
		<path fill="#666666" d="M1024.411,478.071v5.449h4.329v2.28h-4.329v11.557c0,2.165,0.465,3.324,2.203,3.324
			c0.773,0,1.623-0.193,2.281-0.464l0.231,1.662c-0.89,0.618-2.513,1.005-3.672,1.005c-2.782,0-3.942-1.314-3.942-5.295V485.8
			h-2.705v-2.28h2.744c0.463-1.7,0.889-3.749,1.197-5.449H1024.411z"/>
		<path fill="#666666" d="M1049.146,476.602c4.406,0,6.338,2.357,6.338,6.029c0,3.169-1.43,5.102-4.097,6.106
			c2.706-0.115,5.257,2.126,5.257,6.029c0,4.484-2.242,8.001-8.697,8.001c-1.854,0-3.517-0.077-5.14-0.077v-26.089h6.339V476.602z
			 M1047.91,487.656c3.131,0,4.29-2.435,4.29-4.6c0-2.048-1.275-3.787-3.556-3.787h-2.744v8.387L1047.91,487.656L1047.91,487.656z
			 M1048.605,500.063c3.285,0,4.676-1.972,4.676-5.024c0-2.667-1.662-4.755-4.908-4.755h-2.474v9.624
			C1046.441,499.986,1047.599,500.063,1048.605,500.063z"/>
		<path fill="#666666" d="M1063.677,493.492v0.541c0,4.522,1.74,6.494,4.329,6.494c1.778,0,3.517-0.503,4.754-1.044l0.541,1.739
			c-1.778,1.005-3.981,1.778-6.106,1.778c-4.252,0-6.57-2.822-6.57-9.354c0-6.687,2.396-10.358,6.725-10.358
			c4.02,0,6.377,2.667,5.991,10.203L1063.677,493.492L1063.677,493.492z M1070.48,490.516c0-2.938-1.005-5.141-3.324-5.141
			c-2.087,0-3.4,2.628-3.479,6.029h6.803V490.516z"/>
		<path fill="#666666" d="M1081.302,483.52l0.309,3.518c1.778-2.744,2.822-3.788,4.098-3.788c0.425,0,0.85,0.116,1.275,0.271
			l-0.348,2.899c-0.465-0.155-0.967-0.232-1.314-0.232c-0.967,0-2.203,1.469-3.518,3.44v13.063h-2.898V483.52L1081.302,483.52
			L1081.302,483.52z"/>
		<path fill="#666666" d="M1098.501,484.332l0.579-0.812h3.634l-6.185,7.847l7.112,11.324h-3.788l-5.721-10.204v10.204h-2.898
			v-27.403h2.898v15.46L1098.501,484.332z"/>
		<path fill="#666666" d="M1108.547,493.492v0.541c0,4.522,1.74,6.494,4.329,6.494c1.778,0,3.517-0.503,4.754-1.044l0.541,1.739
			c-1.778,1.005-3.981,1.778-6.106,1.778c-4.252,0-6.57-2.822-6.57-9.354c0-6.687,2.396-10.358,6.725-10.358
			c4.02,0,6.377,2.667,5.991,10.203L1108.547,493.492L1108.547,493.492z M1115.349,490.516c0-2.938-1.005-5.141-3.324-5.141
			c-2.087,0-3.4,2.628-3.479,6.029h6.803V490.516z"/>
		<path fill="#666666" d="M1126.673,475.288v22.997c0,2.126,0.232,2.551,1.275,2.551h1.082l0.039,1.816
			c-0.734,0.193-1.623,0.31-2.396,0.31c-2.049,0-2.898-0.657-2.898-3.903v-23.771H1126.673z"/>
		<path fill="#666666" d="M1135.211,493.492v0.541c0,4.522,1.74,6.494,4.329,6.494c1.778,0,3.517-0.503,4.754-1.044l0.541,1.739
			c-1.778,1.005-3.981,1.778-6.106,1.778c-4.252,0-6.57-2.822-6.57-9.354c0-6.687,2.396-10.358,6.725-10.358
			c4.02,0,6.377,2.667,5.991,10.203L1135.211,493.492L1135.211,493.492z M1142.014,490.516c0-2.938-1.005-5.141-3.324-5.141
			c-2.087,0-3.4,2.628-3.479,6.029h6.803V490.516z"/>
		<path fill="#666666" d="M1155.421,499.444c1.392-4.754,2.435-10.126,3.054-15.924h3.207c-3.787,22.34-8.889,25.935-11.826,25.935
			c-0.928,0-1.778-0.231-2.242-0.464v-2.01c0.387,0.077,0.967,0.154,1.236,0.154c3.209,0,5.219-3.323,4.059-7.072l-5.062-16.543
			h3.207l3.247,11.711l1.083,4.213L1155.421,499.444L1155.421,499.444z"/>
	</g>
	<g>
		<path fill="none" d="M1076.746,150.914c-16.316,0-33.153,0.786-58.482,2.59v0.195l18.45,7.31v9.716
			c29.267-4.352,53.939-7.177,77.171-9.523C1108.467,154.063,1097.741,150.914,1076.746,150.914z"/>
		<path fill="#75A484" d="M268.098,316.959c-8.703,14.968-26.107,30.284-58.133,30.284c-48.386,0-66.139-41.772-66.139-99.557
			c0-36.028,6.962-65.965,23.845-83.196c-9.051,0.522-20.886,5.744-26.108,12.88l-1.392-1.392
			c11.139-19.32,43.513-27.848,68.228-27.848c31.851,0,48.908,13.924,57.959,29.241l23.671-15.665
			c-15.316-24.367-40.032-42.12-77.975-42.12c-68.924,0-102.342,56.74-102.342,128.101c0,48.023,15.136,89.423,46.36,111.367
			c45.788-5.588,81.729-7.904,126.011-12.991c3.763-4.261,7.115-8.877,10.035-13.787L268.098,316.959z"/>
		<path fill="#535453" d="M213.098,375.787c29.583,0,53.007-11.633,68.984-29.725c-44.282,5.087-80.223,7.403-126.011,12.991
			C171.244,369.717,190.215,375.787,213.098,375.787z"/>
		<path fill="#75A484" d="M364.872,125.851v208.442c9.687-1.632,19.874-3.431,30.633-5.421V125.851H364.872z"/>
		<path fill="#535453" d="M364.872,369.522h128.449l-1.044-27.848h-88.94l-6.439,16.535h-1.392v-29.336
			c-10.76,1.989-20.947,3.788-30.633,5.421L364.872,369.522L364.872,369.522z"/>
		<path fill="#75A484" d="M591.838,155.092v-1.393h39.335l1.045-27.848h-74.494l1.044,27.848h20.887v133.802
			c10.849-2.962,20.998-5.859,30.632-8.707V162.402L591.838,155.092z"/>
		<path fill="#535453" d="M579.655,341.673h-20.887l-1.044,27.848h74.494l-1.045-27.848h-20.886v-62.879
			c-9.634,2.848-19.783,5.745-30.632,8.707V341.673z"/>
		<path fill="#535453" d="M710.541,369.522h30.633V236.786c-10.67,3.296-20.784,6.539-30.633,9.757L710.541,369.522L710.541,369.522
			z"/>
		<path fill="#535453" d="M822.63,242.29l4.002,18.972l-1.217,2.089l-26.927-43.062c-10.342,2.763-20.055,5.466-29.274,8.123
			l37.055,56.521h20.886l55-83.892l0.577-1.175c-13.985,3.099-27.022,6.108-39.243,9.04L822.63,242.29z"/>
		<path fill="#75A484" d="M895.383,125.851l-51.894,83.055c12.221-2.932,25.258-5.941,39.243-9.04l8.821-17.97h0.697v15.88
			c6.42-1.398,13.028-2.814,19.849-4.249c3.651-0.768,7.244-1.518,10.783-2.249v-65.427H895.383z"/>
		<path fill="#75A484" d="M739.434,125.851h-28.893v120.692c9.85-3.218,19.963-6.461,30.633-9.757v-54.89h0.696l9.4,19.146
			l17.945,27.371c9.219-2.657,18.932-5.36,29.274-8.123L739.434,125.851z"/>
		<path fill="#535453" d="M892.25,197.775v171.747h30.632V191.277c-3.539,0.731-7.132,1.48-10.783,2.249
			C905.278,194.961,898.67,196.377,892.25,197.775z"/>
		<path fill="#535453" d="M1126.524,236.895v-0.697c15.317-9.051,25.411-22.279,25.411-51.17c0-9.919-1.474-19.034-4.744-27.038
			c-11.005,1.038-21.986,2.068-33.307,3.212c4.464,5.882,5.329,14.469,5.329,26.262c0,27.848-6.961,41.076-31.329,41.076h-51.17
			v-57.815c-9.671,1.438-19.844,3.043-30.633,4.852v193.944c19.494,0.696,54.304,2.088,73.798,2.088
			c72.056,0,85.981-39.335,85.981-72.753C1165.86,255.692,1141.842,242.464,1126.524,236.895z M1077.791,344.458
			c-14.392,0-25.962-0.421-41.076-1.355v-87.412h58.828c26.805,0,36.203,11.14,36.203,43.514
			C1131.746,329.316,1123.392,344.458,1077.791,344.458z"/>
		<path fill="#75A484" d="M1036.715,161.009l-18.45-7.31v-0.195c25.329-1.804,42.166-2.59,58.482-2.59
			c20.995,0,31.721,3.149,37.139,10.288c11.321-1.143,22.302-2.174,33.307-3.212c-8.549-20.927-29.425-34.228-68.705-34.228
			c-19.494,0-52.563,1.391-72.406,2.088v49.727c10.79-1.81,20.963-3.415,30.633-4.852L1036.715,161.009L1036.715,161.009z"/>
	</g>
</g>
</svg>
