<svg xmlns="http://www.w3.org/2000/svg" xmlns:xlink="http://www.w3.org/1999/xlink" viewBox="0 0 1453.5 577.32"><defs><style>.e12d177c-de2b-41e0-8dcd-dcedcb4823c9{fill:none;}.bea277ce-695a-4e32-9d4d-0f9e6ed33940{fill:#3c484e;}.acb806b3-00b1-4459-9ade-9958e2f07e86{clip-path:url(#b4b4ad49-dd3b-4b03-9ac7-b17fa332f9a5);}.f058a955-3a65-4863-840e-60f0eff3441a{fill:#afd698;}</style><clipPath id="b4b4ad49-dd3b-4b03-9ac7-b17fa332f9a5" transform="translate(96.25 60.3)"><path class="e12d177c-de2b-41e0-8dcd-dcedcb4823c9" d="M-96.25,395.7s1093.5-303,1453.5-265.5L1190.75-60.3,16.25,4.2Z"/></clipPath></defs><g id="acf8a46a-cb0c-4d13-b8cb-a22e8f761505" data-name="图层 2"><path class="bea277ce-695a-4e32-9d4d-0f9e6ed33940" d="M197.74,510.05h-3.38v-17.8h-6.09v-2.9h15.56v2.9h-6.09Z" transform="translate(96.25 60.3)"/><path class="bea277ce-695a-4e32-9d4d-0f9e6ed33940" d="M219.7,510.05h-3.34v-9.63a4.2,4.2,0,0,0-.73-2.7,2.82,2.82,0,0,0-2.31-.89,3.68,3.68,0,0,0-3.08,1.25,6.9,6.9,0,0,0-1,4.2v7.77h-3.33V488h3.33v5.59a24.61,24.61,0,0,1-.17,2.88h.21a4.68,4.68,0,0,1,1.9-1.76,6.11,6.11,0,0,1,2.82-.62q5.69,0,5.69,5.73Z" transform="translate(96.25 60.3)"/><path class="bea277ce-695a-4e32-9d4d-0f9e6ed33940" d="M230.45,510.34a7.6,7.6,0,0,1-5.72-2.13,8.11,8.11,0,0,1-2.06-5.87,8.93,8.93,0,0,1,1.91-6,6.63,6.63,0,0,1,5.26-2.19,6.47,6.47,0,0,1,4.9,1.88,7.21,7.21,0,0,1,1.8,5.18V503H226.1a5.2,5.2,0,0,0,1.23,3.51,4.33,4.33,0,0,0,3.27,1.22,11.78,11.78,0,0,0,2.59-.26,13.21,13.21,0,0,0,2.57-.87v2.7a10.27,10.27,0,0,1-2.47.83A15.13,15.13,0,0,1,230.45,510.34Zm-.61-13.71a3.29,3.29,0,0,0-2.54,1,4.74,4.74,0,0,0-1.14,2.93h7.1a4.29,4.29,0,0,0-.93-2.94A3.17,3.17,0,0,0,229.84,496.63Z" transform="translate(96.25 60.3)"/><path class="bea277ce-695a-4e32-9d4d-0f9e6ed33940" d="M255.56,492A5.61,5.61,0,0,0,251,494a10.85,10.85,0,0,0-.06,11.47,5.65,5.65,0,0,0,4.65,2,12.53,12.53,0,0,0,2.55-.26c.82-.18,1.68-.4,2.56-.68v2.91a15.58,15.58,0,0,1-5.52.92,8.81,8.81,0,0,1-7-2.76c-1.62-1.83-2.44-4.46-2.44-7.88a12.73,12.73,0,0,1,1.19-5.65,8.43,8.43,0,0,1,3.42-3.71,10.32,10.32,0,0,1,5.25-1.29,13,13,0,0,1,5.86,1.34l-1.22,2.81a17.52,17.52,0,0,0-2.21-.87A8,8,0,0,0,255.56,492Z" transform="translate(96.25 60.3)"/><path class="bea277ce-695a-4e32-9d4d-0f9e6ed33940" d="M270.89,510.34a7.57,7.57,0,0,1-5.71-2.13,8.11,8.11,0,0,1-2.06-5.87,8.93,8.93,0,0,1,1.91-6,6.63,6.63,0,0,1,5.26-2.19,6.45,6.45,0,0,1,4.89,1.88,7.21,7.21,0,0,1,1.8,5.18V503H266.55a5.1,5.1,0,0,0,1.23,3.51,4.3,4.3,0,0,0,3.27,1.22,11.63,11.63,0,0,0,2.58-.26,12.78,12.78,0,0,0,2.57-.87v2.7a10.06,10.06,0,0,1-2.46.83A15.16,15.16,0,0,1,270.89,510.34Zm-.6-13.71a3.33,3.33,0,0,0-2.55,1,4.86,4.86,0,0,0-1.14,2.93h7.11a4.34,4.34,0,0,0-.93-2.94A3.2,3.2,0,0,0,270.29,496.63Z" transform="translate(96.25 60.3)"/><path class="bea277ce-695a-4e32-9d4d-0f9e6ed33940" d="M293.82,510.05h-3.35v-9.63a4.27,4.27,0,0,0-.72-2.7,2.84,2.84,0,0,0-2.32-.89,3.68,3.68,0,0,0-3.09,1.24,6.93,6.93,0,0,0-1,4.18v7.8H280V494.39h2.6l.47,2.06h.17a4.55,4.55,0,0,1,2-1.73,6.68,6.68,0,0,1,2.89-.61q5.64,0,5.64,5.73Z" transform="translate(96.25 60.3)"/><path class="bea277ce-695a-4e32-9d4d-0f9e6ed33940" d="M303.56,507.65a7.91,7.91,0,0,0,2.43-.39v2.51a6.29,6.29,0,0,1-1.42.4,9.67,9.67,0,0,1-1.81.17q-4.72,0-4.73-5v-8.44H295.9v-1.47l2.29-1.22,1.13-3.31h2.06v3.48h4.46v2.52h-4.46v8.39a2.34,2.34,0,0,0,.6,1.77A2.15,2.15,0,0,0,303.56,507.65Z" transform="translate(96.25 60.3)"/><path class="bea277ce-695a-4e32-9d4d-0f9e6ed33940" d="M315.24,510.34a7.6,7.6,0,0,1-5.72-2.13,8.11,8.11,0,0,1-2.06-5.87,8.93,8.93,0,0,1,1.91-6,6.63,6.63,0,0,1,5.26-2.19,6.49,6.49,0,0,1,4.9,1.88,7.25,7.25,0,0,1,1.79,5.18V503H310.89a5.2,5.2,0,0,0,1.23,3.51,4.3,4.3,0,0,0,3.27,1.22,11.78,11.78,0,0,0,2.59-.26,13.21,13.21,0,0,0,2.57-.87v2.7a10.27,10.27,0,0,1-2.47.83A15.13,15.13,0,0,1,315.24,510.34Zm-.61-13.71a3.33,3.33,0,0,0-2.55,1,4.86,4.86,0,0,0-1.14,2.93h7.11a4.34,4.34,0,0,0-.93-2.94A3.2,3.2,0,0,0,314.63,496.63Z" transform="translate(96.25 60.3)"/><path class="bea277ce-695a-4e32-9d4d-0f9e6ed33940" d="M332.32,494.11a8.35,8.35,0,0,1,1.66.14l-.33,3.1a6.43,6.43,0,0,0-1.47-.17,4.24,4.24,0,0,0-3.23,1.31,4.66,4.66,0,0,0-1.24,3.38v8.18h-3.33V494.39H327l.43,2.76h.17a6.24,6.24,0,0,1,2-2.22A4.78,4.78,0,0,1,332.32,494.11Z" transform="translate(96.25 60.3)"/><path class="bea277ce-695a-4e32-9d4d-0f9e6ed33940" d="M350.83,496.91H347v13.14h-3.34V496.91h-2.58v-1.55l2.58-1v-1a5.71,5.71,0,0,1,1.3-4.12,5.35,5.35,0,0,1,4-1.34,10.62,10.62,0,0,1,3.46.59l-.88,2.52a7.53,7.53,0,0,0-2.35-.4,1.9,1.9,0,0,0-1.65.7,3.5,3.5,0,0,0-.52,2.1v1h3.83Z" transform="translate(96.25 60.3)"/><path class="bea277ce-695a-4e32-9d4d-0f9e6ed33940" d="M366.65,502.19a8.54,8.54,0,0,1-2,6,7.05,7.05,0,0,1-5.48,2.16,7.49,7.49,0,0,1-3.88-1,6.6,6.6,0,0,1-2.6-2.85,9.76,9.76,0,0,1-.9-4.31,8.49,8.49,0,0,1,1.95-5.94,7.07,7.07,0,0,1,5.51-2.14,6.89,6.89,0,0,1,5.38,2.19A8.45,8.45,0,0,1,366.65,502.19Zm-11.4,0q0,5.43,4,5.43c2.64,0,4-1.81,4-5.43s-1.33-5.36-4-5.36a3.38,3.38,0,0,0-3,1.39A7,7,0,0,0,355.25,502.19Z" transform="translate(96.25 60.3)"/><path class="bea277ce-695a-4e32-9d4d-0f9e6ed33940" d="M377.7,494.11a8.24,8.24,0,0,1,1.65.14l-.32,3.1a6.58,6.58,0,0,0-1.48-.17,4.24,4.24,0,0,0-3.23,1.31,4.66,4.66,0,0,0-1.24,3.38v8.18h-3.33V494.39h2.61l.44,2.76H373a6.21,6.21,0,0,1,2-2.22A4.79,4.79,0,0,1,377.7,494.11Z" transform="translate(96.25 60.3)"/><path class="bea277ce-695a-4e32-9d4d-0f9e6ed33940" d="M392.08,501.78v8.27h-3.39v-20.7h5.85q4,0,5.93,1.5a5.37,5.37,0,0,1,1.93,4.53q0,3.87-4,5.51l5.85,9.16h-3.86l-4.95-8.27Zm0-2.8h2.35a5.31,5.31,0,0,0,3.42-.88,3.17,3.17,0,0,0,1.07-2.6,2.82,2.82,0,0,0-1.15-2.52,6.31,6.31,0,0,0-3.46-.77h-2.23Z" transform="translate(96.25 60.3)"/><path class="bea277ce-695a-4e32-9d4d-0f9e6ed33940" d="M413,510.34a7.6,7.6,0,0,1-5.72-2.13,8.11,8.11,0,0,1-2.06-5.87,8.88,8.88,0,0,1,1.92-6,6.59,6.59,0,0,1,5.25-2.19,6.47,6.47,0,0,1,4.9,1.88,7.21,7.21,0,0,1,1.8,5.18V503H408.64a5.2,5.2,0,0,0,1.23,3.51,4.33,4.33,0,0,0,3.27,1.22,11.78,11.78,0,0,0,2.59-.26,13,13,0,0,0,2.57-.87v2.7a10,10,0,0,1-2.47.83A15.05,15.05,0,0,1,413,510.34Zm-.61-13.71a3.31,3.31,0,0,0-2.54,1,4.74,4.74,0,0,0-1.14,2.93h7.11a4.29,4.29,0,0,0-.94-2.94A3.17,3.17,0,0,0,412.38,496.63Z" transform="translate(96.25 60.3)"/><path class="bea277ce-695a-4e32-9d4d-0f9e6ed33940" d="M432.65,505.59a4.08,4.08,0,0,1-1.67,3.52,8,8,0,0,1-4.78,1.23,11.36,11.36,0,0,1-5-.95v-2.88a12.33,12.33,0,0,0,5.14,1.28c2.05,0,3.07-.62,3.07-1.86a1.47,1.47,0,0,0-.34-1,3.94,3.94,0,0,0-1.12-.82,19.62,19.62,0,0,0-2.16-1,9.89,9.89,0,0,1-3.66-2.1,3.86,3.86,0,0,1-1-2.72,3.57,3.57,0,0,1,1.62-3.12,7.7,7.7,0,0,1,4.41-1.11,12.45,12.45,0,0,1,5.23,1.12l-1.08,2.5a11.76,11.76,0,0,0-4.26-1c-1.76,0-2.63.5-2.63,1.5a1.51,1.51,0,0,0,.68,1.24,15,15,0,0,0,3,1.4,14.16,14.16,0,0,1,2.82,1.38,4,4,0,0,1,1.3,1.44A4.18,4.18,0,0,1,432.65,505.59Z" transform="translate(96.25 60.3)"/><path class="bea277ce-695a-4e32-9d4d-0f9e6ed33940" d="M443.47,510.34a5.52,5.52,0,0,1-4.62-2.14h-.19c.13,1.32.19,2.12.19,2.41V517h-3.32V494.39h2.69c.07.3.23,1,.46,2.1h.17a5.22,5.22,0,0,1,4.68-2.38,5.44,5.44,0,0,1,4.56,2.12,11.61,11.61,0,0,1,0,11.95A5.46,5.46,0,0,1,443.47,510.34Zm-.81-13.51a3.43,3.43,0,0,0-2.89,1.16,6,6,0,0,0-.92,3.71v.49a7.39,7.39,0,0,0,.91,4.15,3.38,3.38,0,0,0,3,1.28,3,3,0,0,0,2.66-1.42,7.32,7.32,0,0,0,.94-4,7,7,0,0,0-.93-4A3.1,3.1,0,0,0,442.66,496.83Z" transform="translate(96.25 60.3)"/><path class="bea277ce-695a-4e32-9d4d-0f9e6ed33940" d="M466.76,502.19a8.55,8.55,0,0,1-2,6,7,7,0,0,1-5.48,2.16,7.54,7.54,0,0,1-3.88-1,6.58,6.58,0,0,1-2.59-2.85,9.76,9.76,0,0,1-.91-4.31,8.49,8.49,0,0,1,2-5.94,7.07,7.07,0,0,1,5.51-2.14,6.9,6.9,0,0,1,5.38,2.19A8.45,8.45,0,0,1,466.76,502.19Zm-11.4,0q0,5.43,4,5.43t4-5.43q0-5.35-4-5.36a3.4,3.4,0,0,0-3,1.39A7.1,7.1,0,0,0,455.36,502.19Z" transform="translate(96.25 60.3)"/><path class="bea277ce-695a-4e32-9d4d-0f9e6ed33940" d="M483.64,510.05h-3.35v-9.63a4.27,4.27,0,0,0-.72-2.7,2.84,2.84,0,0,0-2.32-.89,3.68,3.68,0,0,0-3.09,1.24,6.93,6.93,0,0,0-1,4.18v7.8h-3.33V494.39h2.6l.47,2.06h.17a4.55,4.55,0,0,1,2-1.73,6.68,6.68,0,0,1,2.89-.61q5.64,0,5.64,5.73Z" transform="translate(96.25 60.3)"/><path class="bea277ce-695a-4e32-9d4d-0f9e6ed33940" d="M498.06,505.59a4.08,4.08,0,0,1-1.67,3.52,8,8,0,0,1-4.78,1.23,11.33,11.33,0,0,1-5-.95v-2.88a12.33,12.33,0,0,0,5.14,1.28c2,0,3.07-.62,3.07-1.86a1.47,1.47,0,0,0-.34-1,3.94,3.94,0,0,0-1.12-.82,20.53,20.53,0,0,0-2.16-1,9.89,9.89,0,0,1-3.66-2.1,3.86,3.86,0,0,1-1-2.72,3.57,3.57,0,0,1,1.62-3.12,7.7,7.7,0,0,1,4.41-1.11,12.45,12.45,0,0,1,5.23,1.12l-1.08,2.5a11.76,11.76,0,0,0-4.26-1c-1.76,0-2.63.5-2.63,1.5a1.49,1.49,0,0,0,.68,1.24,15,15,0,0,0,3,1.4,13.75,13.75,0,0,1,2.81,1.38,4,4,0,0,1,1.31,1.44A4.18,4.18,0,0,1,498.06,505.59Z" transform="translate(96.25 60.3)"/><path class="bea277ce-695a-4e32-9d4d-0f9e6ed33940" d="M500.74,490.24a1.86,1.86,0,0,1,.48-1.37,1.93,1.93,0,0,1,1.4-.48,1.89,1.89,0,0,1,1.37.48,1.86,1.86,0,0,1,.48,1.37,1.82,1.82,0,0,1-.48,1.34,1.85,1.85,0,0,1-1.37.49,1.9,1.9,0,0,1-1.4-.49A1.82,1.82,0,0,1,500.74,490.24Zm3.52,19.81h-3.33V494.39h3.33Z" transform="translate(96.25 60.3)"/><path class="bea277ce-695a-4e32-9d4d-0f9e6ed33940" d="M516.3,494.11a5.44,5.44,0,0,1,4.56,2.12,11.66,11.66,0,0,1,0,12,6,6,0,0,1-9.22,0h-.22l-.61,1.85h-2.5V488h3.33v5.24c0,.39,0,1-.05,1.73s-.07,1.25-.09,1.46h.14A5.3,5.3,0,0,1,516.3,494.11Zm-.87,2.72a3.37,3.37,0,0,0-2.89,1.18,6.89,6.89,0,0,0-.92,4v.22a7.31,7.31,0,0,0,.91,4.15,3.38,3.38,0,0,0,3,1.28,3,3,0,0,0,2.68-1.4,7.45,7.45,0,0,0,.91-4.05C519.08,498.61,517.87,496.83,515.43,496.83Z" transform="translate(96.25 60.3)"/><path class="bea277ce-695a-4e32-9d4d-0f9e6ed33940" d="M529,510.05h-3.33V488H529Z" transform="translate(96.25 60.3)"/><path class="bea277ce-695a-4e32-9d4d-0f9e6ed33940" d="M539.84,510.34a7.6,7.6,0,0,1-5.72-2.13,8.11,8.11,0,0,1-2.06-5.87,8.88,8.88,0,0,1,1.92-6,6.59,6.59,0,0,1,5.25-2.19,6.47,6.47,0,0,1,4.9,1.88,7.21,7.21,0,0,1,1.8,5.18V503H535.49a5.2,5.2,0,0,0,1.23,3.51A4.33,4.33,0,0,0,540,507.7a11.78,11.78,0,0,0,2.59-.26,13,13,0,0,0,2.57-.87v2.7a10.13,10.13,0,0,1-2.47.83A15.13,15.13,0,0,1,539.84,510.34Zm-.61-13.71a3.29,3.29,0,0,0-2.54,1,4.74,4.74,0,0,0-1.14,2.93h7.11a4.29,4.29,0,0,0-.94-2.94A3.17,3.17,0,0,0,539.23,496.63Z" transform="translate(96.25 60.3)"/><path class="bea277ce-695a-4e32-9d4d-0f9e6ed33940" d="M552.44,507a49.48,49.48,0,0,1-2.49,6.78H547.5a69.73,69.73,0,0,0,1.45-7.11h3.28Z" transform="translate(96.25 60.3)"/><path class="bea277ce-695a-4e32-9d4d-0f9e6ed33940" d="M580,499.5q0,5.13-2.84,7.84t-8.2,2.71h-5.79v-20.7h6.4q4.93,0,7.68,2.66C579.09,493.79,580,496.29,580,499.5Zm-3.57.12q0-7.44-6.95-7.44h-2.93v15H569Q576.43,507.21,576.43,499.62Z" transform="translate(96.25 60.3)"/><path class="bea277ce-695a-4e32-9d4d-0f9e6ed33940" d="M590.21,510.34a7.56,7.56,0,0,1-5.71-2.13,8.07,8.07,0,0,1-2.07-5.87,8.88,8.88,0,0,1,1.92-6,6.59,6.59,0,0,1,5.25-2.19,6.47,6.47,0,0,1,4.9,1.88,7.21,7.21,0,0,1,1.8,5.18V503H585.86a5.2,5.2,0,0,0,1.23,3.51,4.33,4.33,0,0,0,3.27,1.22,11.78,11.78,0,0,0,2.59-.26,13,13,0,0,0,2.57-.87v2.7a10,10,0,0,1-2.47.83A15.05,15.05,0,0,1,590.21,510.34Zm-.61-13.71a3.31,3.31,0,0,0-2.54,1,4.74,4.74,0,0,0-1.14,2.93H593a4.29,4.29,0,0,0-.94-2.94A3.17,3.17,0,0,0,589.6,496.63Z" transform="translate(96.25 60.3)"/><path class="bea277ce-695a-4e32-9d4d-0f9e6ed33940" d="M605.67,510.34a6.83,6.83,0,0,1-5.4-2.08,8.62,8.62,0,0,1-1.85-5.95,8.72,8.72,0,0,1,1.93-6.08,7.19,7.19,0,0,1,5.59-2.12,10.52,10.52,0,0,1,4.46.92l-1,2.68a10,10,0,0,0-3.48-.83q-4.06,0-4.06,5.4a6.44,6.44,0,0,0,1,4,3.49,3.49,0,0,0,3,1.32,8.56,8.56,0,0,0,4.21-1.1v2.9a6.5,6.5,0,0,1-1.9.75A11.56,11.56,0,0,1,605.67,510.34Z" transform="translate(96.25 60.3)"/><path class="bea277ce-695a-4e32-9d4d-0f9e6ed33940" d="M619.83,510.34a7.6,7.6,0,0,1-5.72-2.13,8.11,8.11,0,0,1-2.06-5.87,8.93,8.93,0,0,1,1.91-6,6.63,6.63,0,0,1,5.26-2.19,6.49,6.49,0,0,1,4.9,1.88,7.25,7.25,0,0,1,1.79,5.18V503H615.48a5.2,5.2,0,0,0,1.23,3.51A4.3,4.3,0,0,0,620,507.7a11.78,11.78,0,0,0,2.59-.26,13.21,13.21,0,0,0,2.57-.87v2.7a10.27,10.27,0,0,1-2.47.83A15.13,15.13,0,0,1,619.83,510.34Zm-.61-13.71a3.33,3.33,0,0,0-2.55,1,4.79,4.79,0,0,0-1.13,2.93h7.1a4.34,4.34,0,0,0-.93-2.94A3.2,3.2,0,0,0,619.22,496.63Z" transform="translate(96.25 60.3)"/><path class="bea277ce-695a-4e32-9d4d-0f9e6ed33940" d="M642.75,510.05h-3.34v-9.63a4.26,4.26,0,0,0-.73-2.7,2.84,2.84,0,0,0-2.32-.89,3.71,3.71,0,0,0-3.09,1.24,6.93,6.93,0,0,0-1,4.18v7.8H629V494.39h2.61l.46,2.06h.17a4.61,4.61,0,0,1,2-1.73,6.71,6.71,0,0,1,2.89-.61q5.64,0,5.64,5.73Z" transform="translate(96.25 60.3)"/><path class="bea277ce-695a-4e32-9d4d-0f9e6ed33940" d="M652.49,507.65a7.91,7.91,0,0,0,2.43-.39v2.51a6.29,6.29,0,0,1-1.42.4,9.67,9.67,0,0,1-1.81.17q-4.73,0-4.73-5v-8.44h-2.13v-1.47l2.29-1.22,1.13-3.31h2.06v3.48h4.46v2.52h-4.46v8.39a2.34,2.34,0,0,0,.6,1.77A2.17,2.17,0,0,0,652.49,507.65Z" transform="translate(96.25 60.3)"/><path class="bea277ce-695a-4e32-9d4d-0f9e6ed33940" d="M665.27,494.11a8.42,8.42,0,0,1,1.66.14l-.33,3.1a6.43,6.43,0,0,0-1.47-.17,4.28,4.28,0,0,0-3.24,1.31,4.7,4.7,0,0,0-1.23,3.38v8.18h-3.33V494.39h2.6l.44,2.76h.17a6.31,6.31,0,0,1,2-2.22A4.83,4.83,0,0,1,665.27,494.11Z" transform="translate(96.25 60.3)"/><path class="bea277ce-695a-4e32-9d4d-0f9e6ed33940" d="M678.9,510.05l-.66-2.18h-.11a6.39,6.39,0,0,1-2.28,1.95,7.15,7.15,0,0,1-3,.52,5,5,0,0,1-3.6-1.25,4.64,4.64,0,0,1-1.3-3.52,4.14,4.14,0,0,1,1.8-3.66,10.35,10.35,0,0,1,5.48-1.34l2.7-.09v-.83a3.18,3.18,0,0,0-.7-2.25,2.86,2.86,0,0,0-2.17-.74,7.74,7.74,0,0,0-2.31.35,18.7,18.7,0,0,0-2.12.84l-1.08-2.38a11.69,11.69,0,0,1,2.79-1,12.33,12.33,0,0,1,2.86-.35,6.76,6.76,0,0,1,4.51,1.3,5.08,5.08,0,0,1,1.52,4.09v10.55ZM674,507.79a4.14,4.14,0,0,0,2.91-1,3.7,3.7,0,0,0,1.1-2.84v-1.36l-2,.08a6.87,6.87,0,0,0-3.42.79,2.37,2.37,0,0,0-1.07,2.14,2.07,2.07,0,0,0,.62,1.62A2.65,2.65,0,0,0,674,507.79Z" transform="translate(96.25 60.3)"/><path class="bea277ce-695a-4e32-9d4d-0f9e6ed33940" d="M688.53,510.05H685.2V488h3.33Z" transform="translate(96.25 60.3)"/><path class="bea277ce-695a-4e32-9d4d-0f9e6ed33940" d="M692.37,490.24a1.86,1.86,0,0,1,.48-1.37,1.92,1.92,0,0,1,1.4-.48,1.89,1.89,0,0,1,1.37.48,1.86,1.86,0,0,1,.48,1.37,1.82,1.82,0,0,1-.48,1.34,1.85,1.85,0,0,1-1.37.49,1.88,1.88,0,0,1-1.4-.49A1.82,1.82,0,0,1,692.37,490.24Zm3.52,19.81h-3.33V494.39h3.33Z" transform="translate(96.25 60.3)"/><path class="bea277ce-695a-4e32-9d4d-0f9e6ed33940" d="M710.39,510.05H698.51V508l7.91-11.06H699v-2.55h11.17v2.32l-7.74,10.79h8Z" transform="translate(96.25 60.3)"/><path class="bea277ce-695a-4e32-9d4d-0f9e6ed33940" d="M719.9,510.34a7.57,7.57,0,0,1-5.71-2.13,8.07,8.07,0,0,1-2.06-5.87,8.88,8.88,0,0,1,1.91-6,6.59,6.59,0,0,1,5.25-2.19,6.47,6.47,0,0,1,4.9,1.88,7.21,7.21,0,0,1,1.8,5.18V503H715.55a5.15,5.15,0,0,0,1.24,3.51,4.3,4.3,0,0,0,3.27,1.22,11.75,11.75,0,0,0,2.58-.26,12.78,12.78,0,0,0,2.57-.87v2.7a10.06,10.06,0,0,1-2.46.83A15.16,15.16,0,0,1,719.9,510.34Zm-.61-13.71a3.32,3.32,0,0,0-2.54,1,4.74,4.74,0,0,0-1.14,2.93h7.11a4.29,4.29,0,0,0-.94-2.94A3.17,3.17,0,0,0,719.29,496.63Z" transform="translate(96.25 60.3)"/><path class="bea277ce-695a-4e32-9d4d-0f9e6ed33940" d="M734.33,510.34a5.46,5.46,0,0,1-4.58-2.13,11.63,11.63,0,0,1,0-12,5.48,5.48,0,0,1,4.6-2.14,5.39,5.39,0,0,1,4.7,2.28h.17a20,20,0,0,1-.24-2.66V488h3.35v22h-2.61l-.58-2.05H739A5.3,5.3,0,0,1,734.33,510.34Zm.89-2.69a3.63,3.63,0,0,0,3-1.16,6.1,6.1,0,0,0,1-3.74v-.47a7.08,7.08,0,0,0-1-4.21,3.57,3.57,0,0,0-3-1.24,3,3,0,0,0-2.7,1.42,7.23,7.23,0,0,0-1,4.06,7.06,7.06,0,0,0,.92,4A3.1,3.1,0,0,0,735.22,507.65Z" transform="translate(96.25 60.3)"/><path class="bea277ce-695a-4e32-9d4d-0f9e6ed33940" d="M753.55,510.05v-20.7h3.38v20.7Z" transform="translate(96.25 60.3)"/><path class="bea277ce-695a-4e32-9d4d-0f9e6ed33940" d="M775.1,510.05h-3.34v-9.63a4.2,4.2,0,0,0-.73-2.7,2.84,2.84,0,0,0-2.32-.89,3.67,3.67,0,0,0-3.08,1.24,6.92,6.92,0,0,0-1,4.18v7.8h-3.33V494.39h2.61l.46,2.06h.17a4.63,4.63,0,0,1,2-1.73,6.64,6.64,0,0,1,2.88-.61q5.64,0,5.64,5.73Z" transform="translate(96.25 60.3)"/><path class="bea277ce-695a-4e32-9d4d-0f9e6ed33940" d="M784.84,507.65a7.91,7.91,0,0,0,2.43-.39v2.51a6.14,6.14,0,0,1-1.42.4,9.64,9.64,0,0,1-1.8.17c-3.16,0-4.73-1.66-4.73-5v-8.44h-2.14v-1.47l2.29-1.22,1.13-3.31h2.06v3.48h4.46v2.52h-4.46v8.39a2.34,2.34,0,0,0,.6,1.77A2.17,2.17,0,0,0,784.84,507.65Z" transform="translate(96.25 60.3)"/><path class="bea277ce-695a-4e32-9d4d-0f9e6ed33940" d="M796.52,510.34a7.6,7.6,0,0,1-5.72-2.13,8.11,8.11,0,0,1-2.06-5.87,8.88,8.88,0,0,1,1.92-6,6.59,6.59,0,0,1,5.25-2.19,6.47,6.47,0,0,1,4.9,1.88,7.21,7.21,0,0,1,1.8,5.18V503H792.17a5.2,5.2,0,0,0,1.23,3.51,4.33,4.33,0,0,0,3.27,1.22,11.78,11.78,0,0,0,2.59-.26,13,13,0,0,0,2.57-.87v2.7a10,10,0,0,1-2.47.83A15.13,15.13,0,0,1,796.52,510.34Zm-.61-13.71a3.29,3.29,0,0,0-2.54,1,4.74,4.74,0,0,0-1.14,2.93h7.11a4.29,4.29,0,0,0-.94-2.94A3.17,3.17,0,0,0,795.91,496.63Z" transform="translate(96.25 60.3)"/><path class="bea277ce-695a-4e32-9d4d-0f9e6ed33940" d="M809,510.05h-3.33V488H809Z" transform="translate(96.25 60.3)"/><path class="bea277ce-695a-4e32-9d4d-0f9e6ed33940" d="M816.35,510.05H813V488h3.33Z" transform="translate(96.25 60.3)"/><path class="bea277ce-695a-4e32-9d4d-0f9e6ed33940" d="M820.19,490.24a1.86,1.86,0,0,1,.48-1.37,1.92,1.92,0,0,1,1.4-.48,1.89,1.89,0,0,1,1.37.48,1.86,1.86,0,0,1,.48,1.37,1.82,1.82,0,0,1-.48,1.34,1.85,1.85,0,0,1-1.37.49,1.88,1.88,0,0,1-1.4-.49A1.82,1.82,0,0,1,820.19,490.24Zm3.52,19.81h-3.33V494.39h3.33Z" transform="translate(96.25 60.3)"/><path class="bea277ce-695a-4e32-9d4d-0f9e6ed33940" d="M841,494.39v1.83l-2.68.49a4.22,4.22,0,0,1,.61,1.22,4.81,4.81,0,0,1,.24,1.53,4.65,4.65,0,0,1-1.67,3.81,7,7,0,0,1-4.6,1.39,8.05,8.05,0,0,1-1.36-.11,1.87,1.87,0,0,0-1.08,1.55.87.87,0,0,0,.51.81,4.32,4.32,0,0,0,1.85.27h2.73a6.13,6.13,0,0,1,3.94,1.1,3.91,3.91,0,0,1,1.34,3.19,4.65,4.65,0,0,1-2.19,4.11,11.61,11.61,0,0,1-6.35,1.44,8.78,8.78,0,0,1-4.88-1.13,3.66,3.66,0,0,1-1.69-3.23,3.49,3.49,0,0,1,.91-2.43,4.94,4.94,0,0,1,2.56-1.37,2.47,2.47,0,0,1-1.1-.91,2.36,2.36,0,0,1,.07-2.81,5.5,5.5,0,0,1,1.47-1.2,4.41,4.41,0,0,1-2-1.71,5.06,5.06,0,0,1-.75-2.77,5,5,0,0,1,1.6-3.95,6.78,6.78,0,0,1,4.58-1.4,11.45,11.45,0,0,1,1.4.09,9.92,9.92,0,0,1,1.1.19Zm-12.31,18.1a1.85,1.85,0,0,0,1,1.66,5.43,5.43,0,0,0,2.73.58,8.24,8.24,0,0,0,4-.78,2.33,2.33,0,0,0,1.33-2.07,1.54,1.54,0,0,0-.73-1.45,5.81,5.81,0,0,0-2.71-.43h-2.52a3.53,3.53,0,0,0-2.27.67A2.21,2.21,0,0,0,828.66,512.49Zm1.43-13a3.19,3.19,0,0,0,.76,2.27,2.87,2.87,0,0,0,2.18.79q2.88,0,2.88-3.09a3.46,3.46,0,0,0-.71-2.35,2.69,2.69,0,0,0-2.17-.83,2.78,2.78,0,0,0-2.19.82A3.42,3.42,0,0,0,830.09,499.46Z" transform="translate(96.25 60.3)"/><path class="bea277ce-695a-4e32-9d4d-0f9e6ed33940" d="M850,510.34a7.6,7.6,0,0,1-5.72-2.13,8.11,8.11,0,0,1-2.06-5.87,8.93,8.93,0,0,1,1.91-6,6.63,6.63,0,0,1,5.26-2.19,6.47,6.47,0,0,1,4.9,1.88,7.21,7.21,0,0,1,1.8,5.18V503H845.64a5.2,5.2,0,0,0,1.23,3.51,4.33,4.33,0,0,0,3.27,1.22,11.78,11.78,0,0,0,2.59-.26,13.21,13.21,0,0,0,2.57-.87v2.7a10.13,10.13,0,0,1-2.47.83A15.13,15.13,0,0,1,850,510.34Zm-.61-13.71a3.29,3.29,0,0,0-2.54,1,4.74,4.74,0,0,0-1.14,2.93h7.1a4.29,4.29,0,0,0-.93-2.94A3.17,3.17,0,0,0,849.38,496.63Z" transform="translate(96.25 60.3)"/><path class="bea277ce-695a-4e32-9d4d-0f9e6ed33940" d="M872.91,510.05h-3.34v-9.63a4.2,4.2,0,0,0-.73-2.7,2.84,2.84,0,0,0-2.32-.89,3.67,3.67,0,0,0-3.08,1.24,6.92,6.92,0,0,0-1,4.18v7.8h-3.33V494.39h2.61l.46,2.06h.17a4.63,4.63,0,0,1,2-1.73,6.64,6.64,0,0,1,2.88-.61q5.64,0,5.64,5.73Z" transform="translate(96.25 60.3)"/><path class="bea277ce-695a-4e32-9d4d-0f9e6ed33940" d="M883.13,510.34a6.83,6.83,0,0,1-5.4-2.08,8.67,8.67,0,0,1-1.85-5.95,8.77,8.77,0,0,1,1.93-6.08,7.19,7.19,0,0,1,5.59-2.12,10.52,10.52,0,0,1,4.46.92l-1,2.68a10,10,0,0,0-3.48-.83q-4.07,0-4.06,5.4a6.51,6.51,0,0,0,1,4,3.51,3.51,0,0,0,3,1.32,8.55,8.55,0,0,0,4.2-1.1v2.9a6.5,6.5,0,0,1-1.9.75A11.56,11.56,0,0,1,883.13,510.34Z" transform="translate(96.25 60.3)"/><path class="bea277ce-695a-4e32-9d4d-0f9e6ed33940" d="M897.29,510.34a7.6,7.6,0,0,1-5.72-2.13,8.11,8.11,0,0,1-2.06-5.87,8.93,8.93,0,0,1,1.91-6,6.63,6.63,0,0,1,5.26-2.19,6.47,6.47,0,0,1,4.9,1.88,7.21,7.21,0,0,1,1.8,5.18V503H892.94a5.2,5.2,0,0,0,1.23,3.51,4.33,4.33,0,0,0,3.27,1.22,11.78,11.78,0,0,0,2.59-.26,13,13,0,0,0,2.57-.87v2.7a10.13,10.13,0,0,1-2.47.83A15.13,15.13,0,0,1,897.29,510.34Zm-.61-13.71a3.29,3.29,0,0,0-2.54,1,4.74,4.74,0,0,0-1.14,2.93h7.11a4.29,4.29,0,0,0-.94-2.94A3.17,3.17,0,0,0,896.68,496.63Z" transform="translate(96.25 60.3)"/><path class="bea277ce-695a-4e32-9d4d-0f9e6ed33940" d="M923,510.05l-.67-2.18h-.11a6.23,6.23,0,0,1-2.28,1.95,7.07,7.07,0,0,1-2.94.52,5,5,0,0,1-3.61-1.25,4.67,4.67,0,0,1-1.29-3.52,4.16,4.16,0,0,1,1.79-3.66,10.36,10.36,0,0,1,5.49-1.34l2.7-.09v-.83a3.18,3.18,0,0,0-.7-2.25,2.88,2.88,0,0,0-2.17-.74,7.64,7.64,0,0,0-2.31.35,18.14,18.14,0,0,0-2.13.84l-1.07-2.38a11.69,11.69,0,0,1,2.79-1,12.33,12.33,0,0,1,2.86-.35,6.78,6.78,0,0,1,4.51,1.3,5.11,5.11,0,0,1,1.52,4.09v10.55Zm-5-2.26a4.14,4.14,0,0,0,2.91-1,3.66,3.66,0,0,0,1.1-2.84v-1.36l-2,.08a6.87,6.87,0,0,0-3.42.79,2.39,2.39,0,0,0-1.07,2.14,2.1,2.1,0,0,0,.62,1.62A2.65,2.65,0,0,0,918.08,507.79Z" transform="translate(96.25 60.3)"/><path class="bea277ce-695a-4e32-9d4d-0f9e6ed33940" d="M935.17,507.65a8,8,0,0,0,2.44-.39v2.51a6.39,6.39,0,0,1-1.43.4,9.64,9.64,0,0,1-1.8.17q-4.73,0-4.73-5v-8.44h-2.14v-1.47l2.29-1.22,1.14-3.31h2v3.48h4.46v2.52H933v8.39a2.34,2.34,0,0,0,.6,1.77A2.17,2.17,0,0,0,935.17,507.65Z" transform="translate(96.25 60.3)"/><path class="bea277ce-695a-4e32-9d4d-0f9e6ed33940" d="M947.17,489.35h6.15q4.27,0,6.18,1.25a4.36,4.36,0,0,1,1.91,3.93,4.79,4.79,0,0,1-.94,3,4.2,4.2,0,0,1-2.69,1.52v.14a5.34,5.34,0,0,1,3.21,1.62,4.93,4.93,0,0,1,1,3.28,5.28,5.28,0,0,1-1.94,4.36,8.35,8.35,0,0,1-5.42,1.58h-7.48Zm3.39,8.55h3.26a5.57,5.57,0,0,0,3.1-.67,2.58,2.58,0,0,0,1-2.29,2.3,2.3,0,0,0-1-2.11,6.63,6.63,0,0,0-3.35-.65h-2.93Zm0,2.75v6.56h3.6a5.23,5.23,0,0,0,3.2-.82,3,3,0,0,0,1.09-2.57,2.73,2.73,0,0,0-1.11-2.39,5.81,5.81,0,0,0-3.35-.78Z" transform="translate(96.25 60.3)"/><path class="bea277ce-695a-4e32-9d4d-0f9e6ed33940" d="M972.08,510.34a7.56,7.56,0,0,1-5.71-2.13,8.07,8.07,0,0,1-2.07-5.87,8.88,8.88,0,0,1,1.92-6,6.59,6.59,0,0,1,5.25-2.19,6.47,6.47,0,0,1,4.9,1.88,7.21,7.21,0,0,1,1.8,5.18V503H967.73a5.2,5.2,0,0,0,1.23,3.51,4.33,4.33,0,0,0,3.27,1.22,11.78,11.78,0,0,0,2.59-.26,13,13,0,0,0,2.57-.87v2.7a10,10,0,0,1-2.47.83A15.05,15.05,0,0,1,972.08,510.34Zm-.61-13.71a3.31,3.31,0,0,0-2.54,1,4.74,4.74,0,0,0-1.14,2.93h7.11a4.29,4.29,0,0,0-.94-2.94A3.17,3.17,0,0,0,971.47,496.63Z" transform="translate(96.25 60.3)"/><path class="bea277ce-695a-4e32-9d4d-0f9e6ed33940" d="M989.17,494.11a8.24,8.24,0,0,1,1.65.14l-.32,3.1a6.43,6.43,0,0,0-1.47-.17,4.26,4.26,0,0,0-3.24,1.31,4.66,4.66,0,0,0-1.24,3.38v8.18h-3.33V494.39h2.61l.44,2.76h.17a6.21,6.21,0,0,1,2-2.22A4.81,4.81,0,0,1,989.17,494.11Z" transform="translate(96.25 60.3)"/><path class="bea277ce-695a-4e32-9d4d-0f9e6ed33940" d="M996.22,501.78l1.88-2.35,4.73-5h3.84l-6.3,6.73,6.69,8.93h-3.91l-5-6.86-1.83,1.5v5.36H993V488h3.3v10.75l-.17,3Z" transform="translate(96.25 60.3)"/><path class="bea277ce-695a-4e32-9d4d-0f9e6ed33940" d="M1015.7,510.34a7.6,7.6,0,0,1-5.72-2.13,8.11,8.11,0,0,1-2.06-5.87,8.93,8.93,0,0,1,1.91-6,6.63,6.63,0,0,1,5.26-2.19A6.47,6.47,0,0,1,1020,496a7.21,7.21,0,0,1,1.8,5.18V503h-10.44a5.2,5.2,0,0,0,1.23,3.51,4.33,4.33,0,0,0,3.27,1.22,11.78,11.78,0,0,0,2.59-.26,13,13,0,0,0,2.57-.87v2.7a10,10,0,0,1-2.47.83A15.13,15.13,0,0,1,1015.7,510.34Zm-.61-13.71a3.29,3.29,0,0,0-2.54,1,4.74,4.74,0,0,0-1.14,2.93h7.11a4.29,4.29,0,0,0-.94-2.94A3.17,3.17,0,0,0,1015.09,496.63Z" transform="translate(96.25 60.3)"/><path class="bea277ce-695a-4e32-9d4d-0f9e6ed33940" d="M1028.17,510.05h-3.33V488h3.33Z" transform="translate(96.25 60.3)"/><path class="bea277ce-695a-4e32-9d4d-0f9e6ed33940" d="M1039,510.34a7.57,7.57,0,0,1-5.71-2.13,8.11,8.11,0,0,1-2.06-5.87,8.93,8.93,0,0,1,1.91-6,6.62,6.62,0,0,1,5.25-2.19,6.47,6.47,0,0,1,4.9,1.88,7.21,7.21,0,0,1,1.8,5.18V503H1034.7a5.1,5.1,0,0,0,1.23,3.51,4.3,4.3,0,0,0,3.27,1.22,11.75,11.75,0,0,0,2.58-.26,12.78,12.78,0,0,0,2.57-.87v2.7a10.06,10.06,0,0,1-2.46.83A15.16,15.16,0,0,1,1039,510.34Zm-.61-13.71a3.32,3.32,0,0,0-2.54,1,4.8,4.8,0,0,0-1.14,2.93h7.11a4.34,4.34,0,0,0-.93-2.94A3.2,3.2,0,0,0,1038.43,496.63Z" transform="translate(96.25 60.3)"/><path class="bea277ce-695a-4e32-9d4d-0f9e6ed33940" d="M1045.81,494.39h3.62l3.19,8.88a17,17,0,0,1,1,3.57h.11a17.16,17.16,0,0,1,.47-1.89q.35-1.11,3.6-10.56h3.6l-6.7,17.75q-1.83,4.88-6.09,4.88a9.57,9.57,0,0,1-2.15-.24v-2.63a8,8,0,0,0,1.71.17q2.4,0,3.38-2.79l.58-1.48Z" transform="translate(96.25 60.3)"/></g><g id="aec0fdab-8f7f-49fd-aa30-d2b34446bbd3" data-name="图层 3"><path class="bea277ce-695a-4e32-9d4d-0f9e6ed33940" d="M292,337.24V461.48a8,8,0,0,1-8,8H195.87a8,8,0,0,1-8-8V92a8,8,0,0,1,8-8H314.16Q471.3,84,471.31,197.92q0,63.24-58.33,99.45a8,8,0,0,0-2.35,11.21L509.9,457a8,8,0,0,1-6.66,12.47H404.72a8,8,0,0,1-6.92-4L320.69,333.2a8,8,0,0,0-6.92-4H300A8,8,0,0,0,292,337.24Zm0-94.34a8,8,0,0,0,8,8h11.5q54.59,0,54.58-48.25,0-39.81-53.52-39.81H295.42l-5.7,0A8,8,0,0,0,283.56,176l.19.24a36.09,36.09,0,0,1,8.26,24Z" transform="translate(96.25 60.3)"/><path class="bea277ce-695a-4e32-9d4d-0f9e6ed33940" d="M880.53,268.58q0,96.51-53.13,148.71T678,469.5H570.84A17.53,17.53,0,0,1,553.31,452V168.12a88.07,88.07,0,0,0-19.89-54.59l-.56-.66C523.22,101.43,531.26,84,546.23,84l15.19,0H686.73q92.81,0,143.3,47.46T880.53,268.58Zm-108.11,3.69q0-53-21-78.57t-63.68-25.58H675a17.53,17.53,0,0,0-17.53,17.53V366.54A17.53,17.53,0,0,0,675,384.07h5.67q47.46,0,69.61-27.56T772.42,272.27Z" transform="translate(96.25 60.3)"/><path class="bea277ce-695a-4e32-9d4d-0f9e6ed33940" d="M949.61,449.8V103.71A19.7,19.7,0,0,1,969.3,84h38.45a52.13,52.13,0,0,1,46.54,47.19V449.8a19.7,19.7,0,0,1-19.7,19.7H969.3A19.7,19.7,0,0,1,949.61,449.8Z" transform="translate(96.25 60.3)"/><path d="M553.31,84" transform="translate(96.25 60.3)"/><path d="M526.75,152.2" transform="translate(96.25 60.3)"/><path d="M799.75,235.2" transform="translate(96.25 60.3)"/><path class="e12d177c-de2b-41e0-8dcd-dcedcb4823c9" d="M-96.25,395.7s1093.5-303,1453.5-265.5L1190.75-60.3,16.25,4.2Z" transform="translate(96.25 60.3)"/></g><g id="bedb6fbf-1521-4200-98f8-04566056f271" data-name="图层 3_复制"><g class="acb806b3-00b1-4459-9ade-9958e2f07e86"><path class="f058a955-3a65-4863-840e-60f0eff3441a" d="M292,337.24V461.48a8,8,0,0,1-8,8H195.87a8,8,0,0,1-8-8V92a8,8,0,0,1,8-8H314.16Q471.3,84,471.31,197.92q0,63.24-58.33,99.45a8,8,0,0,0-2.35,11.21L509.9,457a8,8,0,0,1-6.66,12.47H404.72a8,8,0,0,1-6.92-4L320.69,333.2a8,8,0,0,0-6.92-4H300A8,8,0,0,0,292,337.24Zm0-94.34a8,8,0,0,0,8,8h11.5q54.59,0,54.58-48.25,0-39.81-53.52-39.81H295.42l-5.7,0A8,8,0,0,0,283.56,176l.19.24a36.09,36.09,0,0,1,8.26,24Z" transform="translate(96.25 60.3)"/><path class="f058a955-3a65-4863-840e-60f0eff3441a" d="M880.53,268.58q0,96.51-53.13,148.71T678,469.5H570.84A17.53,17.53,0,0,1,553.31,452V168.12a88.07,88.07,0,0,0-19.89-54.59l-.56-.66C523.22,101.43,531.26,84,546.23,84l15.19,0H686.73q92.81,0,143.3,47.46T880.53,268.58Zm-108.11,3.69q0-53-21-78.57t-63.68-25.58H675a17.53,17.53,0,0,0-17.53,17.53V366.54A17.53,17.53,0,0,0,675,384.07h5.67q47.46,0,69.61-27.56T772.42,272.27Z" transform="translate(96.25 60.3)"/><path class="f058a955-3a65-4863-840e-60f0eff3441a" d="M949.61,449.8V103.71A19.7,19.7,0,0,1,969.3,84h38.45a52.13,52.13,0,0,1,46.54,47.19V449.8a19.7,19.7,0,0,1-19.7,19.7H969.3A19.7,19.7,0,0,1,949.61,449.8Z" transform="translate(96.25 60.3)"/><path d="M553.31,84" transform="translate(96.25 60.3)"/><path d="M526.75,152.2" transform="translate(96.25 60.3)"/><path d="M799.75,235.2" transform="translate(96.25 60.3)"/></g></g></svg>