<svg width="1294" height="324" viewBox="0 0 1294 324" fill="none" xmlns="http://www.w3.org/2000/svg">
<path fill-rule="evenodd" clip-rule="evenodd" d="M380.648 131.09C365.133 131.09 353.428 142.843 353.428 156.285V170.258C353.428 183.7 365.133 195.452 380.648 195.452C388.268 195.452 393.57 193.212 401.288 187.611C405.57 184.506 411.579 185.449 414.682 189.714C417.805 193.978 416.842 199.953 412.561 203.038C402.938 209.995 393.727 214.515 380.628 214.515C355.49 214.555 334.241 195.197 334.241 170.258V156.285C334.241 131.366 355.49 112.008 380.648 112.008C393.747 112.008 402.958 116.528 412.581 123.485C416.862 126.59 417.805 132.545 414.702 136.809C411.579 141.074 405.589 142.017 401.308 138.912C393.59 133.331 388.268 131.071 380.667 131.071L380.648 131.09ZM474.875 131.09C459.792 131.09 447.557 143.255 447.557 158.289V168.509C447.557 183.543 459.792 195.708 474.875 195.708C489.958 195.708 501.977 183.602 501.977 168.509V158.289C501.977 143.196 489.879 131.09 474.875 131.09ZM428.37 158.289C428.37 132.741 449.188 112.008 474.875 112.008C500.563 112.008 521.164 132.8 521.164 158.289V168.509C521.164 193.998 500.622 214.79 474.875 214.79C449.129 214.79 428.37 194.057 428.37 168.509V158.289ZM584.774 131.601C569.652 131.601 557.457 143.747 557.457 158.683C557.457 173.618 569.672 185.764 584.774 185.764C599.877 185.764 611.876 173.697 611.876 158.683C611.876 143.668 599.818 131.601 584.774 131.601ZM538.269 158.683C538.269 133.154 559.126 112.519 584.774 112.519C595.693 112.519 605.67 116.253 613.545 122.483L620.733 115.329C624.484 111.595 630.552 111.595 634.303 115.329C638.054 119.063 638.054 125.096 634.303 128.83L625.819 137.281C629.178 143.688 631.063 150.979 631.063 158.702C631.063 184.152 610.501 204.866 584.774 204.866C584.519 204.866 584.264 204.866 584.008 204.866H563.643C560.226 204.866 557.457 207.617 557.457 211.017C557.457 214.417 560.226 217.168 563.643 217.168H589.939H598.345C605.258 217.168 612.426 219.075 618.18 223.614C624.131 228.292 627.901 235.229 628.569 243.739C629.747 258.812 619.123 269.11 610.482 272.431L586.444 283.004C581.593 285.127 575.937 282.945 573.796 278.131C571.655 273.316 573.855 267.675 578.686 265.553L602.96 254.882C603.137 254.803 603.333 254.724 603.51 254.665C604.531 254.292 606.259 253.191 607.614 251.364C608.871 249.674 609.598 247.649 609.421 245.252C609.146 241.754 607.811 239.808 606.259 238.609C604.551 237.253 601.84 236.271 598.325 236.271H564.036C563.937 236.271 563.839 236.271 563.721 236.271H563.604C549.601 236.271 538.23 224.97 538.23 211.037C538.23 201.997 543.002 194.077 550.171 189.616C542.747 181.44 538.23 170.612 538.23 158.722L538.269 158.683ZM694.045 131.601C679.021 131.601 666.825 143.727 666.825 158.683V205.239C666.825 210.506 662.525 214.79 657.242 214.79C651.959 214.79 647.658 210.526 647.658 205.239V158.683C647.658 133.193 668.436 112.519 694.065 112.519C719.693 112.519 740.471 133.193 740.471 158.683V205.239C740.471 210.506 736.17 214.79 730.887 214.79C725.605 214.79 721.304 210.526 721.304 205.239V158.683C721.304 143.727 709.128 131.601 694.084 131.601H694.045ZM807.204 131.621C791.748 131.621 779.356 143.963 779.356 159.017V168.843C779.356 183.897 791.748 196.238 807.204 196.238C812.565 196.238 817.514 194.745 821.698 192.19C826.214 189.439 832.126 190.834 834.895 195.334C837.664 199.835 836.25 205.711 831.733 208.462C824.604 212.825 816.179 215.321 807.204 215.321C781.3 215.321 760.169 194.588 760.169 168.843V159.017C760.169 133.272 781.3 112.538 807.204 112.538C829.357 112.538 847.778 127.671 852.707 148.07L854.632 156.049L813.744 172.597C808.834 174.581 803.237 172.243 801.234 167.349C799.231 162.475 801.587 156.894 806.497 154.909L830.947 145.004C826.156 136.986 817.338 131.601 807.165 131.601L807.204 131.621ZM912.37 131.621C896.914 131.621 884.522 143.963 884.522 159.017V168.843C884.522 183.897 896.914 196.238 912.37 196.238C917.732 196.238 922.681 194.745 926.864 192.19C928.965 190.913 930.89 189.36 932.559 187.572C936.192 183.72 942.26 183.543 946.11 187.139C949.979 190.736 950.175 196.789 946.542 200.621C943.694 203.628 940.454 206.281 936.879 208.462C929.731 212.825 921.326 215.321 912.331 215.321C886.427 215.321 865.296 194.588 865.296 168.843V159.017C865.296 133.272 886.427 112.538 912.331 112.538C934.484 112.538 952.905 127.671 957.834 148.07L959.759 156.049L918.871 172.597C913.961 174.581 908.364 172.243 906.361 167.349C904.358 162.475 906.714 156.894 911.624 154.909L936.074 145.004C931.282 136.986 922.465 131.601 912.292 131.601L912.37 131.621Z" fill="#F4F4F4"/>
<path fill-rule="evenodd" clip-rule="evenodd" d="M380.648 131.09C365.133 131.09 353.428 142.843 353.428 156.285V170.258C353.428 183.7 365.133 195.452 380.648 195.452C388.268 195.452 393.57 193.212 401.288 187.611C405.57 184.506 411.579 185.449 414.682 189.714C417.805 193.978 416.842 199.953 412.561 203.038C402.938 209.995 393.727 214.515 380.628 214.515C355.49 214.555 334.241 195.197 334.241 170.258V156.285C334.241 131.366 355.49 112.008 380.648 112.008C393.747 112.008 402.958 116.528 412.581 123.485C416.862 126.59 417.805 132.545 414.702 136.809C411.579 141.074 405.589 142.017 401.308 138.912C393.59 133.331 388.268 131.071 380.667 131.071L380.648 131.09ZM474.875 131.09C459.792 131.09 447.557 143.255 447.557 158.289V168.509C447.557 183.543 459.792 195.708 474.875 195.708C489.958 195.708 501.977 183.602 501.977 168.509V158.289C501.977 143.196 489.879 131.09 474.875 131.09ZM428.37 158.289C428.37 132.741 449.188 112.008 474.875 112.008C500.563 112.008 521.164 132.8 521.164 158.289V168.509C521.164 193.998 500.622 214.79 474.875 214.79C449.129 214.79 428.37 194.057 428.37 168.509V158.289ZM584.774 131.601C569.652 131.601 557.457 143.747 557.457 158.683C557.457 173.618 569.672 185.764 584.774 185.764C599.877 185.764 611.876 173.697 611.876 158.683C611.876 143.668 599.818 131.601 584.774 131.601ZM538.269 158.683C538.269 133.154 559.126 112.519 584.774 112.519C595.693 112.519 605.67 116.253 613.545 122.483L620.733 115.329C624.484 111.595 630.552 111.595 634.303 115.329C638.054 119.063 638.054 125.096 634.303 128.83L625.819 137.281C629.178 143.688 631.063 150.979 631.063 158.702C631.063 184.152 610.501 204.866 584.774 204.866C584.519 204.866 584.264 204.866 584.008 204.866H563.643C560.226 204.866 557.457 207.617 557.457 211.017C557.457 214.417 560.226 217.168 563.643 217.168H589.939H598.345C605.258 217.168 612.426 219.075 618.18 223.614C624.131 228.292 627.901 235.229 628.569 243.739C629.747 258.812 619.123 269.11 610.482 272.431L586.444 283.004C581.593 285.127 575.937 282.945 573.796 278.131C571.655 273.316 573.855 267.675 578.686 265.553L602.96 254.882C603.137 254.803 603.333 254.724 603.51 254.665C604.531 254.292 606.259 253.191 607.614 251.364C608.871 249.674 609.598 247.649 609.421 245.252C609.146 241.754 607.811 239.808 606.259 238.609C604.551 237.253 601.84 236.271 598.325 236.271H564.036C563.937 236.271 563.839 236.271 563.721 236.271H563.604C549.601 236.271 538.23 224.97 538.23 211.037C538.23 201.997 543.002 194.077 550.171 189.616C542.747 181.44 538.23 170.612 538.23 158.722L538.269 158.683ZM694.045 131.601C679.021 131.601 666.825 143.727 666.825 158.683V205.239C666.825 210.506 662.525 214.79 657.242 214.79C651.959 214.79 647.658 210.526 647.658 205.239V158.683C647.658 133.193 668.436 112.519 694.065 112.519C719.693 112.519 740.471 133.193 740.471 158.683V205.239C740.471 210.506 736.17 214.79 730.887 214.79C725.605 214.79 721.304 210.526 721.304 205.239V158.683C721.304 143.727 709.128 131.601 694.084 131.601H694.045ZM807.204 131.621C791.748 131.621 779.356 143.963 779.356 159.017V168.843C779.356 183.897 791.748 196.238 807.204 196.238C812.565 196.238 817.514 194.745 821.698 192.19C826.214 189.439 832.126 190.834 834.895 195.334C837.664 199.835 836.25 205.711 831.733 208.462C824.604 212.825 816.179 215.321 807.204 215.321C781.3 215.321 760.169 194.588 760.169 168.843V159.017C760.169 133.272 781.3 112.538 807.204 112.538C829.357 112.538 847.778 127.671 852.707 148.07L854.632 156.049L813.744 172.597C808.834 174.581 803.237 172.243 801.234 167.349C799.231 162.475 801.587 156.894 806.497 154.909L830.947 145.004C826.156 136.986 817.338 131.601 807.165 131.601L807.204 131.621ZM912.37 131.621C896.914 131.621 884.522 143.963 884.522 159.017V168.843C884.522 183.897 896.914 196.238 912.37 196.238C917.732 196.238 922.681 194.745 926.864 192.19C928.965 190.913 930.89 189.36 932.559 187.572C936.192 183.72 942.26 183.543 946.11 187.139C949.979 190.736 950.175 196.789 946.542 200.621C943.694 203.628 940.454 206.281 936.879 208.462C929.731 212.825 921.326 215.321 912.331 215.321C886.427 215.321 865.296 194.588 865.296 168.843V159.017C865.296 133.272 886.427 112.538 912.331 112.538C934.484 112.538 952.905 127.671 957.834 148.07L959.759 156.049L918.871 172.597C913.961 174.581 908.364 172.243 906.361 167.349C904.358 162.475 906.714 156.894 911.624 154.909L936.074 145.004C931.282 136.986 922.465 131.601 912.292 131.601L912.37 131.621Z" fill="#6510F4"/>
<mask id="mask0_103_2577" style="mask-type:alpha" maskUnits="userSpaceOnUse" x="0" y="0" width="1294" height="324">
<path fill-rule="evenodd" clip-rule="evenodd" d="M380.648 131.09C365.133 131.09 353.428 142.843 353.428 156.285V170.258C353.428 183.7 365.133 195.452 380.648 195.452C388.268 195.452 393.57 193.212 401.288 187.611C405.57 184.506 411.579 185.449 414.682 189.714C417.805 193.978 416.842 199.953 412.561 203.038C402.938 209.995 393.727 214.515 380.628 214.515C355.49 214.555 334.241 195.197 334.241 170.258V156.285C334.241 131.366 355.49 112.008 380.648 112.008C393.747 112.008 402.958 116.528 412.581 123.485C416.862 126.59 417.805 132.545 414.702 136.809C411.579 141.074 405.589 142.017 401.308 138.912C393.59 133.331 388.268 131.071 380.667 131.071L380.648 131.09ZM474.875 131.09C459.792 131.09 447.557 143.255 447.557 158.289V168.509C447.557 183.543 459.792 195.708 474.875 195.708C489.958 195.708 501.977 183.602 501.977 168.509V158.289C501.977 143.196 489.879 131.09 474.875 131.09ZM428.37 158.289C428.37 132.741 449.188 112.008 474.875 112.008C500.563 112.008 521.164 132.8 521.164 158.289V168.509C521.164 193.998 500.622 214.79 474.875 214.79C449.129 214.79 428.37 194.057 428.37 168.509V158.289ZM584.774 131.601C569.652 131.601 557.457 143.747 557.457 158.683C557.457 173.618 569.672 185.764 584.774 185.764C599.877 185.764 611.876 173.697 611.876 158.683C611.876 143.668 599.818 131.601 584.774 131.601ZM538.269 158.683C538.269 133.154 559.126 112.519 584.774 112.519C595.693 112.519 605.67 116.253 613.545 122.483L620.733 115.329C624.484 111.595 630.552 111.595 634.303 115.329C638.054 119.063 638.054 125.096 634.303 128.83L625.819 137.281C629.178 143.688 631.063 150.979 631.063 158.702C631.063 184.152 610.501 204.866 584.774 204.866C584.519 204.866 584.264 204.866 584.008 204.866H563.643C560.226 204.866 557.457 207.617 557.457 211.017C557.457 214.417 560.226 217.168 563.643 217.168H589.939H598.345C605.258 217.168 612.426 219.075 618.18 223.614C624.131 228.292 627.901 235.229 628.569 243.739C629.747 258.812 619.123 269.11 610.482 272.431L586.444 283.004C581.593 285.127 575.937 282.945 573.796 278.131C571.655 273.316 573.855 267.675 578.686 265.553L602.96 254.882C603.137 254.803 603.333 254.724 603.51 254.665C604.531 254.292 606.259 253.191 607.614 251.364C608.871 249.674 609.598 247.649 609.421 245.252C609.146 241.754 607.811 239.808 606.259 238.609C604.551 237.253 601.84 236.271 598.325 236.271H564.036C563.937 236.271 563.839 236.271 563.721 236.271H563.604C549.601 236.271 538.23 224.97 538.23 211.037C538.23 201.997 543.002 194.077 550.171 189.616C542.747 181.44 538.23 170.612 538.23 158.722L538.269 158.683ZM694.045 131.601C679.021 131.601 666.825 143.727 666.825 158.683V205.239C666.825 210.506 662.525 214.79 657.242 214.79C651.959 214.79 647.658 210.526 647.658 205.239V158.683C647.658 133.193 668.436 112.519 694.065 112.519C719.693 112.519 740.471 133.193 740.471 158.683V205.239C740.471 210.506 736.17 214.79 730.887 214.79C725.605 214.79 721.304 210.526 721.304 205.239V158.683C721.304 143.727 709.128 131.601 694.084 131.601H694.045ZM807.204 131.621C791.748 131.621 779.356 143.963 779.356 159.017V168.843C779.356 183.897 791.748 196.238 807.204 196.238C812.565 196.238 817.514 194.745 821.698 192.19C826.214 189.439 832.126 190.834 834.895 195.334C837.664 199.835 836.25 205.711 831.733 208.462C824.604 212.825 816.179 215.321 807.204 215.321C781.3 215.321 760.169 194.588 760.169 168.843V159.017C760.169 133.272 781.3 112.538 807.204 112.538C829.357 112.538 847.778 127.671 852.707 148.07L854.632 156.049L813.744 172.597C808.834 174.581 803.237 172.243 801.234 167.349C799.231 162.475 801.587 156.894 806.497 154.909L830.947 145.004C826.156 136.986 817.338 131.601 807.165 131.601L807.204 131.621ZM912.37 131.621C896.914 131.621 884.522 143.963 884.522 159.017V168.843C884.522 183.897 896.914 196.238 912.37 196.238C917.732 196.238 922.681 194.745 926.864 192.19C928.965 190.913 930.89 189.36 932.559 187.572C936.192 183.72 942.26 183.543 946.11 187.139C949.979 190.736 950.175 196.789 946.542 200.621C943.694 203.628 940.454 206.281 936.879 208.462C929.731 212.825 921.326 215.321 912.331 215.321C886.427 215.321 865.296 194.588 865.296 168.843V159.017C865.296 133.272 886.427 112.538 912.331 112.538C934.484 112.538 952.905 127.671 957.834 148.07L959.759 156.049L918.871 172.597C913.961 174.581 908.364 172.243 906.361 167.349C904.358 162.475 906.714 156.894 911.624 154.909L936.074 145.004C931.282 136.986 922.465 131.601 912.292 131.601L912.37 131.621Z" fill="white"/>
<path fill-rule="evenodd" clip-rule="evenodd" d="M380.648 131.09C365.133 131.09 353.428 142.843 353.428 156.285V170.258C353.428 183.7 365.133 195.452 380.648 195.452C388.268 195.452 393.57 193.212 401.288 187.611C405.57 184.506 411.579 185.449 414.682 189.714C417.805 193.978 416.842 199.953 412.561 203.038C402.938 209.995 393.727 214.515 380.628 214.515C355.49 214.555 334.241 195.197 334.241 170.258V156.285C334.241 131.366 355.49 112.008 380.648 112.008C393.747 112.008 402.958 116.528 412.581 123.485C416.862 126.59 417.805 132.545 414.702 136.809C411.579 141.074 405.589 142.017 401.308 138.912C393.59 133.331 388.268 131.071 380.667 131.071L380.648 131.09ZM474.875 131.09C459.792 131.09 447.557 143.255 447.557 158.289V168.509C447.557 183.543 459.792 195.708 474.875 195.708C489.958 195.708 501.977 183.602 501.977 168.509V158.289C501.977 143.196 489.879 131.09 474.875 131.09ZM428.37 158.289C428.37 132.741 449.188 112.008 474.875 112.008C500.563 112.008 521.164 132.8 521.164 158.289V168.509C521.164 193.998 500.622 214.79 474.875 214.79C449.129 214.79 428.37 194.057 428.37 168.509V158.289ZM584.774 131.601C569.652 131.601 557.457 143.747 557.457 158.683C557.457 173.618 569.672 185.764 584.774 185.764C599.877 185.764 611.876 173.697 611.876 158.683C611.876 143.668 599.818 131.601 584.774 131.601ZM538.269 158.683C538.269 133.154 559.126 112.519 584.774 112.519C595.693 112.519 605.67 116.253 613.545 122.483L620.733 115.329C624.484 111.595 630.552 111.595 634.303 115.329C638.054 119.063 638.054 125.096 634.303 128.83L625.819 137.281C629.178 143.688 631.063 150.979 631.063 158.702C631.063 184.152 610.501 204.866 584.774 204.866C584.519 204.866 584.264 204.866 584.008 204.866H563.643C560.226 204.866 557.457 207.617 557.457 211.017C557.457 214.417 560.226 217.168 563.643 217.168H589.939H598.345C605.258 217.168 612.426 219.075 618.18 223.614C624.131 228.292 627.901 235.229 628.569 243.739C629.747 258.812 619.123 269.11 610.482 272.431L586.444 283.004C581.593 285.127 575.937 282.945 573.796 278.131C571.655 273.316 573.855 267.675 578.686 265.553L602.96 254.882C603.137 254.803 603.333 254.724 603.51 254.665C604.531 254.292 606.259 253.191 607.614 251.364C608.871 249.674 609.598 247.649 609.421 245.252C609.146 241.754 607.811 239.808 606.259 238.609C604.551 237.253 601.84 236.271 598.325 236.271H564.036C563.937 236.271 563.839 236.271 563.721 236.271H563.604C549.601 236.271 538.23 224.97 538.23 211.037C538.23 201.997 543.002 194.077 550.171 189.616C542.747 181.44 538.23 170.612 538.23 158.722L538.269 158.683ZM694.045 131.601C679.021 131.601 666.825 143.727 666.825 158.683V205.239C666.825 210.506 662.525 214.79 657.242 214.79C651.959 214.79 647.658 210.526 647.658 205.239V158.683C647.658 133.193 668.436 112.519 694.065 112.519C719.693 112.519 740.471 133.193 740.471 158.683V205.239C740.471 210.506 736.17 214.79 730.887 214.79C725.605 214.79 721.304 210.526 721.304 205.239V158.683C721.304 143.727 709.128 131.601 694.084 131.601H694.045ZM807.204 131.621C791.748 131.621 779.356 143.963 779.356 159.017V168.843C779.356 183.897 791.748 196.238 807.204 196.238C812.565 196.238 817.514 194.745 821.698 192.19C826.214 189.439 832.126 190.834 834.895 195.334C837.664 199.835 836.25 205.711 831.733 208.462C824.604 212.825 816.179 215.321 807.204 215.321C781.3 215.321 760.169 194.588 760.169 168.843V159.017C760.169 133.272 781.3 112.538 807.204 112.538C829.357 112.538 847.778 127.671 852.707 148.07L854.632 156.049L813.744 172.597C808.834 174.581 803.237 172.243 801.234 167.349C799.231 162.475 801.587 156.894 806.497 154.909L830.947 145.004C826.156 136.986 817.338 131.601 807.165 131.601L807.204 131.621ZM912.37 131.621C896.914 131.621 884.522 143.963 884.522 159.017V168.843C884.522 183.897 896.914 196.238 912.37 196.238C917.732 196.238 922.681 194.745 926.864 192.19C928.965 190.913 930.89 189.36 932.559 187.572C936.192 183.72 942.26 183.543 946.11 187.139C949.979 190.736 950.175 196.789 946.542 200.621C943.694 203.628 940.454 206.281 936.879 208.462C929.731 212.825 921.326 215.321 912.331 215.321C886.427 215.321 865.296 194.588 865.296 168.843V159.017C865.296 133.272 886.427 112.538 912.331 112.538C934.484 112.538 952.905 127.671 957.834 148.07L959.759 156.049L918.871 172.597C913.961 174.581 908.364 172.243 906.361 167.349C904.358 162.475 906.714 156.894 911.624 154.909L936.074 145.004C931.282 136.986 922.465 131.601 912.292 131.601L912.37 131.621Z" fill="#6510F4"/>
</mask>
<g mask="url(#mask0_103_2577)">
<rect x="86" y="-119" width="1120" height="561" fill="#6510F4"/>
</g>
</svg>
